<?xml version="1.0" encoding="utf-8"?>
<!-- Generator: Adobe Illustrator 27.6.1, SVG Export Plug-In . SVG Version: 6.00 Build 0)  -->
<svg version="1.1" id="Layer_1" xmlns="http://www.w3.org/2000/svg" xmlns:xlink="http://www.w3.org/1999/xlink" x="0px" y="0px"
	 viewBox="0 0 1080 1080" style="enable-background:new 0 0 1080 1080;" xml:space="preserve">
<style type="text/css">
	.st0{fill:#DD1989;}
	.st1{fill:#58595B;}
	.st2{fill:#FFFFFF;}
	.st3{fill:#39B54A;}
	.st4{fill:#0ECAD3;}
	.st5{fill:#4ED15A;}
	.st6{fill:#0F8084;}
</style>
<g>
	<path class="st0" d="M485.93,634.9l-2.42-0.47l0.94-7.2c6.01,0.81,10.6,1.21,13.79,1.21c4.75,0,7.13-1.97,7.13-5.92
		c0-1.61-0.63-2.8-1.88-3.57c-1.26-0.76-3.36-1.57-6.32-2.42c-3.54-0.99-6.33-2.09-8.37-3.3c-2.04-1.21-3.52-2.65-4.44-4.3
		c-0.92-1.66-1.38-3.72-1.38-6.19c0-4.48,1.37-7.87,4.1-10.16c2.73-2.29,6.57-3.43,11.5-3.43c1.93,0,3.92,0.12,5.99,0.37
		c2.06,0.25,5.09,0.73,9.08,1.45l-0.74,7.33c-6.14-0.72-10.6-1.08-13.38-1.08c-4.89,0-7.33,1.61-7.33,4.84
		c0,1.12,0.4,2.04,1.21,2.76c0.81,0.72,1.82,1.31,3.03,1.78s3.25,1.15,6.12,2.05c3.09,0.99,5.49,2.02,7.2,3.09
		c1.7,1.08,2.94,2.41,3.7,4c0.76,1.59,1.14,3.64,1.14,6.15c0,4.71-1.42,8.32-4.27,10.83c-2.85,2.51-6.69,3.77-11.53,3.77
		C495.28,636.52,491,635.98,485.93,634.9z"/>
	<path class="st0" d="M536.04,602.08h8.95v1.82c1.75-1.03,3.22-1.73,4.41-2.09c1.19-0.36,2.46-0.54,3.8-0.54
		c4.31,0,7.5,1.42,9.58,4.27c2.09,2.85,3.13,7.39,3.13,13.62c0,4.3-0.52,7.71-1.55,10.22c-1.03,2.51-2.65,4.33-4.84,5.45
		c-2.2,1.12-5.11,1.68-8.74,1.68c-1.79,0-3.7-0.18-5.72-0.54v13.85h-9.01V602.08z M555.21,626.53c1.03-1.46,1.55-3.91,1.55-7.37
		c0-3.41-0.47-5.89-1.41-7.47c-0.94-1.57-2.49-2.35-4.64-2.35c-1.57,0-3.18,0.34-4.84,1.01l-0.81,0.34v17.62
		c2.02,0.27,3.63,0.4,4.84,0.4C552.4,628.72,554.17,627.99,555.21,626.53z"/>
	<path class="st0" d="M589.24,632.55c-2.33-2.65-3.5-6.93-3.5-12.85c0-6.19,1.22-10.81,3.67-13.86c2.44-3.05,6.24-4.57,11.4-4.57
		c4.75,0,8.35,1.27,10.8,3.8c2.44,2.53,3.67,6.33,3.67,11.4l-0.67,6.26h-19.77c0.09,1.57,0.37,2.77,0.84,3.6
		c0.47,0.83,1.23,1.41,2.29,1.75c1.05,0.34,2.52,0.5,4.41,0.5c1.48,0,3.25-0.04,5.31-0.13c2.06-0.09,3.57-0.18,4.51-0.27l1.88-0.2
		l0.14,6.66c-5.07,1.25-9.6,1.88-13.59,1.88C595.36,636.52,591.57,635.2,589.24,632.55z M606.39,615.87c0-2.69-0.42-4.56-1.24-5.62
		c-0.83-1.05-2.3-1.58-4.41-1.58c-2.15,0-3.68,0.55-4.57,1.65c-0.9,1.1-1.37,2.95-1.41,5.55H606.39z"/>
	<path class="st0" d="M638.17,632.31c-2.18-2.8-3.26-7.27-3.26-13.42c0-6.23,1.12-10.73,3.36-13.48c2.24-2.76,5.9-4.14,10.96-4.14
		c1.3,0,2.73,0.11,4.3,0.34c1.57,0.22,3.68,0.61,6.32,1.14l-0.27,7.13c-3.81-0.36-6.46-0.54-7.94-0.54c-2.06,0-3.63,0.28-4.71,0.84
		c-1.08,0.56-1.83,1.51-2.25,2.86c-0.43,1.35-0.64,3.27-0.64,5.78c0,2.56,0.21,4.51,0.64,5.85c0.43,1.35,1.19,2.31,2.29,2.89
		c1.1,0.58,2.7,0.87,4.81,0.87l7.8-0.54l0.27,7.2c-4.75,0.94-8.47,1.41-11.16,1.41C643.85,636.52,640.34,635.12,638.17,632.31z"/>
	<path class="st0" d="M681.31,588.7h9.01v9.08h-9.01V588.7z M681.31,602.08h9.01v33.63h-9.01V602.08z"/>
	<path class="st0" d="M711.24,625.49c0-3.5,0.93-6.02,2.79-7.57c1.86-1.55,4.85-2.46,8.98-2.72l7.2-0.54v-2.09
		c0-1.35-0.3-2.29-0.91-2.83c-0.6-0.54-1.63-0.81-3.06-0.81c-1.48,0-3.52,0.06-6.12,0.17c-2.6,0.11-4.78,0.23-6.52,0.37l-0.27-6.26
		c4.84-1.3,9.42-1.95,13.72-1.95c4.31,0,7.41,0.9,9.32,2.69c1.91,1.79,2.86,4.66,2.86,8.61v13.99c0.09,1.12,0.28,1.88,0.57,2.29
		c0.29,0.4,0.84,0.7,1.65,0.87l-0.27,6.79c-2.33,0-4.18-0.16-5.55-0.47c-1.37-0.31-2.72-0.94-4.07-1.88
		c-3.27,1.57-6.57,2.35-9.89,2.35C714.72,636.52,711.24,632.84,711.24,625.49z M729.2,628.38l1.01-0.27v-7.2l-6.12,0.54
		c-2.51,0.23-3.77,1.57-3.77,4.04c0,2.47,1.1,3.7,3.3,3.7C725.32,629.19,727.18,628.92,729.2,628.38z"/>
	<path class="st0" d="M763.03,588.63h9.01v47.08h-9.01V588.63z"/>
	<path class="st0" d="M795.58,588.7h9.01v9.08h-9.01V588.7z M795.58,602.08h9.01v33.63h-9.01V602.08z"/>
	<path class="st0" d="M828.68,635.31l-2.15-0.4l0.27-7.53c5.42,0.72,9.37,1.08,11.84,1.08c1.66,0,2.97-0.18,3.93-0.54
		c0.96-0.36,1.45-1.03,1.45-2.02c0-0.9-0.46-1.55-1.38-1.95c-0.92-0.4-2.46-0.78-4.61-1.14c-0.81-0.09-1.37-0.18-1.68-0.27
		c-2.24-0.4-4.08-0.91-5.52-1.51c-1.44-0.61-2.6-1.57-3.5-2.89c-0.9-1.32-1.35-3.17-1.35-5.55c0-3.81,1.17-6.63,3.5-8.47
		c2.33-1.84,5.54-2.76,9.62-2.76c2.42,0,5.99,0.43,10.69,1.28l2.22,0.4l-0.14,7.47c-5.43-0.72-9.44-1.08-12.04-1.08
		c-1.52,0-2.72,0.16-3.6,0.47c-0.87,0.31-1.31,0.92-1.31,1.82c0,0.94,0.45,1.6,1.35,1.98c0.9,0.38,2.35,0.75,4.37,1.11l2.35,0.4
		c3.59,0.72,6.14,1.78,7.67,3.19c1.52,1.41,2.29,3.69,2.29,6.83c0,3.86-1.1,6.7-3.3,8.54c-2.2,1.84-5.58,2.76-10.16,2.76
		C836.54,636.52,832.93,636.11,828.68,635.31z"/>
	<path class="st0" d="M879.66,635.31c-1.44-0.81-2.47-2.13-3.09-3.97c-0.63-1.84-0.94-4.37-0.94-7.6v-13.99h-3.97v-7.67h3.97v-9.35
		h9.01v9.35h8.27v7.67h-8.27v13.79c0,1.75,0.16,3.02,0.47,3.8c0.31,0.78,1.1,1.15,2.35,1.11l5.11-0.14l0.4,7.2
		c-1.79,0.4-3.19,0.67-4.2,0.81c-1.01,0.14-2.03,0.2-3.06,0.2C883.11,636.52,881.09,636.11,879.66,635.31z"/>
</g>
<g>
	<path class="st1" d="M551.24,542.53h-7.3c-0.13,5.46-1.52,9.48-4.16,12.04c-2.65,2.56-6.28,3.84-10.89,3.84h-17.87
		c-2.95,0-5.87-0.56-8.77-1.66c-2.9-1.11-5.31-2.82-7.2-5.12c-1.9-2.3-2.85-5.12-2.85-8.45c0-1.49,0.18-3.48,0.54-5.96
		c0.36-2.48,0.76-4.76,1.18-6.85l8,1.28c-0.3,1.79-0.57,3.72-0.8,5.8c-0.23,2.07-0.35,3.55-0.35,4.45c0,1.62,0.42,3.09,1.25,4.42
		c0.83,1.32,2,2.37,3.49,3.14c1.49,0.77,3.22,1.15,5.19,1.15h17.67c2.35,0,4.06-0.6,5.12-1.79c1.07-1.2,1.62-3.29,1.67-6.28h-0.19
		c-1.96,0-3.71-0.2-5.25-0.61c-1.54-0.4-3.12-1.18-4.74-2.34l3.71-6.66c1.11,0.85,2.09,1.37,2.95,1.54
		c0.85,0.17,2.18,0.26,3.97,0.26h15.62V542.53z M510.51,563.02h6.6v8h-6.6V563.02z M520.25,563.02h6.6v8h-6.6V563.02z"/>
	<path class="st1" d="M549.96,534.72h16.01v7.81h-16.01V534.72z"/>
	<path class="st1" d="M565.97,534.72h16.01v7.81h-16.01V534.72z"/>
	<path class="st1" d="M581.97,534.72h16.01v7.81h-16.01V534.72z"/>
	<path class="st1" d="M597.98,534.72h16.01v7.81h-16.01V534.72z"/>
	<path class="st1" d="M613.99,534.72H630v7.81h-16.01V534.72z"/>
	<path class="st1" d="M630,534.72h16.01v7.81H630V534.72z"/>
	<path class="st1" d="M646.01,534.72h16.01v7.81h-16.01V534.72z"/>
	<path class="st1" d="M662.02,534.72h16.01v7.81h-16.01V534.72z"/>
	<path class="st1" d="M678.03,534.72h16.01v7.81h-16.01V534.72z"/>
	<path class="st1" d="M694.03,534.72h16.01v7.81h-16.01V534.72z"/>
	<path class="st1" d="M710.04,534.72h16.01v7.81h-16.01V534.72z"/>
	<path class="st1" d="M726.05,534.72h16.01v7.81h-16.01V534.72z"/>
	<path class="st1" d="M760.18,510.51v32.02h-18.12v-7.81h9.54v-24.21H760.18z M763.06,500.39l-14.02,2.75l-0.7-3.01l2.95-0.77
		c-1.67-1.41-2.5-3.14-2.5-5.19c0-1.75,0.63-3.27,1.89-4.55c1.26-1.28,2.87-1.92,4.83-1.92c1.67,0,3.33,0.51,4.99,1.54l-0.83,3.84
		c-0.26-0.21-0.62-0.42-1.09-0.61c-0.47-0.19-1-0.29-1.6-0.29c-0.98,0-1.78,0.32-2.4,0.96c-0.62,0.64-0.93,1.41-0.93,2.3
		c0,1.2,0.51,2.16,1.54,2.88l6.98-1.86L763.06,500.39z"/>
	<path class="st1" d="M784.64,534.72v7.81h-14.86v-44.82h8.58v37.01H784.64z"/>
	<path class="st1" d="M839.78,534.72v7.81h-55.13v-7.81h8.45v-24.21h8.58v10.25c1.92-2.39,3.66-4.33,5.22-5.83
		c1.56-1.49,3.38-2.71,5.48-3.65c2.09-0.94,4.5-1.41,7.24-1.41c5.38,0,9.19,1.65,11.43,4.96c2.24,3.31,3.36,7.18,3.36,11.62v8.26
		H839.78z M808.75,521.94c-2.88,2.84-5.24,6.11-7.08,9.83v2.95h24.14v-6.6c0-2.9-0.72-5.37-2.15-7.4c-1.43-2.03-3.45-3.04-6.05-3.04
		C814.59,517.68,811.63,519.1,808.75,521.94z"/>
	<path class="st1" d="M869.71,512.4c1.81,1.69,2.74,4.37,2.79,8.04v22.09h-32.72v-7.81h24.14v-12.04c0-1.83-0.39-3.21-1.18-4.13
		c-0.79-0.92-2.15-1.38-4.07-1.38c-3.93,0.13-7.34,0.26-10.25,0.38l-3.27,0.13l-0.26-5.7c2.22-0.6,4.91-1.1,8.07-1.5
		c3.16-0.41,5.83-0.61,8-0.61C864.98,509.87,867.9,510.72,869.71,512.4z M855.21,496.23h7.88v8.32h-7.88V496.23z"/>
	<path class="st1" d="M892.8,497l-14.02,2.75l-0.7-3.01l2.95-0.77c-1.67-1.41-2.5-3.14-2.5-5.19c0-1.75,0.63-3.27,1.89-4.55
		c1.26-1.28,2.87-1.92,4.83-1.92c1.67,0,3.33,0.51,4.99,1.54l-0.83,3.84c-0.26-0.21-0.62-0.42-1.09-0.61c-0.47-0.19-1-0.29-1.6-0.29
		c-0.98,0-1.78,0.32-2.4,0.96c-0.62,0.64-0.93,1.41-0.93,2.31c0,1.2,0.51,2.16,1.54,2.88l6.98-1.86L892.8,497z M881.46,503.21h8.58
		v39.32h-8.58V503.21z"/>
</g>
<g>
	<path class="st2" d="M302.58,661.16l-74.57-74.03c0.22,0.22,0.43,0.43,0.65,0.63c0.19-0.36,0.46-0.69,0.8-0.98
		c1.06-0.92,2.59-0.93,3.84-0.08c0.48,0.33,0.6,0.62,0.3,1.13c-0.24,0.41-0.35,0.87-0.43,1.33c-0.13,0.67,0.12,1.13,0.7,1.29
		c0.6,0.16,1.11-0.13,1.28-0.78c0.34-1.22,0.93-2.23,1.95-3.02c1.91-1.44,4.61-1.45,6.34-0.01c2.06,1.71,2.6,4.25,1.43,6.53
		c-0.16,0.32-0.38,0.49-0.71,0.58c-0.86,0.25-1.61,0.69-2.27,1.27c-0.58,0.51-0.67,1.2-0.24,1.67c0.39,0.41,1.01,0.39,1.58-0.08
		c1.79-1.48,4.04-1.44,5.77,0.12c0.51,0.45,1.13,0.49,1.53,0.09c0.42-0.42,0.39-1.11-0.09-1.58c-0.84-0.83-1.85-1.38-3.01-1.62
		c-0.33-0.07-0.38-0.14-0.26-0.46c0.54-1.6,0.53-3.21-0.02-4.8c-0.39-1.11-0.39-1.11,0.6-1.8c1.81-1.25,4.54-1.11,6.2,0.35
		c0.21,0.19,0.5,0.35,0.23,0.75c-1.55,2.3-1.69,4.73-0.58,7.25c0.1,0.24,0.09,0.38-0.06,0.59c-0.52,0.79-0.89,1.64-1.03,2.58
		c-0.11,0.75,0.18,1.24,0.78,1.37c0.62,0.13,1.1-0.25,1.27-1c0.52-2.36,2.15-3.63,4.54-3.53c0.72,0.03,1.2-0.33,1.25-0.94
		c0.05-0.62-0.37-1.07-1.09-1.13c-1.22-0.1-2.36,0.09-3.43,0.69c-0.41,0.23-0.53,0.12-0.65-0.29c-0.84-2.68,0.77-5.64,3.54-6.45
		c2.76-0.81,5.79,0.84,6.46,3.52c0.1,0.37,0.1,0.58-0.35,0.7c-0.53,0.14-1,0.44-1.46,0.74c-0.49,0.31-0.61,0.85-0.34,1.39
		c0.23,0.44,0.82,0.65,1.32,0.43c0.2-0.09,0.39-0.22,0.57-0.33c2.45-1.41,5.74-0.5,7.11,1.97c1.38,2.5,0.5,5.69-1.94,7.06
		c-0.41,0.23-0.6,0.24-0.72-0.26c-0.18-0.71-0.56-1.3-1.03-1.85c-0.51-0.62-1.29-0.62-1.73-0.03c-0.36,0.49-0.2,0.93,0.14,1.39
		c1.18,1.52,1.13,2.95-0.14,4.4c-0.33,0.37-0.36,0.84-0.14,1.21c0.73-0.43,1.55-0.67,2.38-0.71c0.24-0.39,0.43-0.82,0.56-1.26
		c0.07-0.22,0.12-0.39,0.39-0.48c2.01-0.67,3.46-2,4.33-3.93c0.16-0.35,0.33-0.39,0.65-0.29c1.19,0.38,2.15,0.98,2.85,1.81
		c2.17,0.48,3.58,1.9,4.27,4.06c0.1,0.32,0.05,0.5-0.29,0.65c-1.94,0.87-3.26,2.31-3.94,4.33c-0.08,0.26-0.26,0.32-0.48,0.38
		c-0.86,0.26-1.61,0.69-2.21,1.34c-0.41,0.43-0.41,1.01-0.02,1.43c0.4,0.43,1.01,0.45,1.47,0.05c1.46-1.26,2.88-1.31,4.41-0.13
		c0.45,0.34,0.89,0.5,1.38,0.14c0.6-0.44,0.58-1.22-0.03-1.73c-0.54-0.46-1.15-0.85-1.85-1.02c-0.5-0.12-0.49-0.33-0.26-0.72
		c1.39-2.44,4.57-3.32,7.07-1.94c2.47,1.36,3.38,4.66,1.96,7.1c-0.11,0.2-0.24,0.38-0.33,0.58c-0.22,0.5-0.02,1.07,0.43,1.3
		c0.53,0.29,1.07,0.16,1.38-0.33c0.3-0.46,0.6-0.93,0.75-1.46c0.12-0.44,0.33-0.43,0.69-0.35c2.68,0.68,4.33,3.7,3.52,6.47
		c-0.8,2.76-3.76,4.38-6.45,3.53c-0.39-0.12-0.51-0.24-0.28-0.65c0.59-1.06,0.78-2.22,0.68-3.42c-0.06-0.72-0.52-1.15-1.13-1.09
		c-0.6,0.05-0.98,0.54-0.95,1.26c0.1,2.38-1.17,4.02-3.53,4.54c-0.74,0.16-1.12,0.65-1,1.26c0.14,0.62,0.62,0.9,1.37,0.79
		c0.94-0.15,1.79-0.52,2.58-1.05c0.21-0.14,0.35-0.15,0.59-0.05c2.52,1.11,4.95,0.97,7.25-0.58c0.39-0.27,0.56,0.03,0.74,0.24
		c1.46,1.64,1.61,4.38,0.35,6.2c-0.69,0.99-0.69,0.99-1.8,0.6c-1.6-0.55-3.2-0.56-4.8-0.02c-0.33,0.12-0.39,0.05-0.46-0.26
		c-0.25-1.16-0.79-2.17-1.62-3.02c-0.48-0.48-1.17-0.5-1.58-0.09c-0.4,0.4-0.36,1.02,0.09,1.52c1.55,1.73,1.6,3.99,0.12,5.78
		c-0.48,0.57-0.5,1.18-0.08,1.57c0.47,0.43,1.15,0.35,1.67-0.23c0.58-0.67,1.01-1.43,1.26-2.27c0.1-0.34,0.27-0.56,0.59-0.72
		c2.28-1.16,4.82-0.62,6.53,1.43c1.44,1.73,1.43,4.43-0.01,6.34c-0.77,1.02-1.8,1.62-3.01,1.95c-0.66,0.18-0.95,0.69-0.79,1.28
		c0.16,0.58,0.62,0.83,1.29,0.71c0.46-0.09,0.93-0.2,1.33-0.44c0.51-0.31,0.81-0.19,1.14,0.3c0.84,1.25,0.84,2.79-0.08,3.83
		c-0.44,0.5-0.94,0.84-1.47,1.02L302.58,661.16z"/>
	<path class="st2" d="M295.6,651.64c0.92-1.05,0.92-2.58,0.08-3.83c-0.33-0.49-0.63-0.6-1.14-0.3c-0.4,0.24-0.87,0.35-1.33,0.44
		c-0.67,0.12-1.13-0.13-1.29-0.71c-0.16-0.6,0.13-1.11,0.79-1.28c1.21-0.33,2.24-0.93,3.01-1.95c1.45-1.91,1.45-4.61,0.01-6.34
		c-1.72-2.05-4.25-2.59-6.53-1.43c-0.32,0.16-0.5,0.38-0.59,0.72c-0.25,0.84-0.69,1.6-1.26,2.27c-0.52,0.58-1.2,0.67-1.67,0.23
		c-0.42-0.39-0.39-1,0.08-1.57c1.48-1.79,1.43-4.05-0.12-5.78c-0.45-0.5-0.49-1.12-0.09-1.52c0.41-0.41,1.11-0.39,1.58,0.09
		c0.83,0.84,1.37,1.85,1.62,3.02c0.07,0.32,0.14,0.38,0.46,0.26c1.6-0.54,3.2-0.53,4.8,0.02c1.11,0.39,1.11,0.39,1.8-0.6
		c1.26-1.81,1.11-4.56-0.35-6.2c-0.18-0.21-0.35-0.51-0.74-0.24c-2.3,1.56-4.73,1.7-7.25,0.58c-0.24-0.1-0.38-0.09-0.59,0.05
		c-0.79,0.52-1.64,0.9-2.58,1.05c-0.75,0.1-1.24-0.18-1.37-0.79c-0.12-0.61,0.26-1.09,1-1.26c2.36-0.52,3.63-2.16,3.53-4.54
		c-0.03-0.72,0.35-1.21,0.95-1.26c0.61-0.05,1.07,0.37,1.13,1.09c0.1,1.2-0.09,2.36-0.68,3.42c-0.23,0.41-0.11,0.53,0.28,0.65
		c2.68,0.85,5.64-0.77,6.45-3.53c0.82-2.76-0.84-5.79-3.52-6.47c-0.37-0.09-0.58-0.1-0.69,0.35c-0.14,0.53-0.45,1-0.75,1.46
		c-0.31,0.49-0.85,0.62-1.38,0.33c-0.46-0.23-0.66-0.81-0.43-1.3c0.08-0.2,0.22-0.39,0.33-0.58c1.41-2.44,0.5-5.74-1.96-7.1
		c-2.5-1.39-5.69-0.5-7.07,1.94c-0.22,0.39-0.23,0.6,0.26,0.72c0.7,0.17,1.3,0.56,1.85,1.02c0.61,0.52,0.62,1.29,0.03,1.73
		c-0.49,0.37-0.93,0.2-1.38-0.14c-1.53-1.18-2.95-1.13-4.41,0.13c-0.46,0.4-1.07,0.38-1.47-0.05c-0.39-0.42-0.39-0.99,0.02-1.43
		c0.6-0.66,1.36-1.08,2.21-1.34c0.22-0.06,0.39-0.12,0.48-0.38c0.68-2.02,2-3.46,3.94-4.33c0.34-0.16,0.39-0.33,0.29-0.65
		c-0.69-2.16-2.09-3.57-4.27-4.06c-0.71-0.82-1.66-1.43-2.85-1.81c-0.32-0.1-0.5-0.05-0.65,0.29c-0.88,1.94-2.32,3.26-4.33,3.93
		c-0.26,0.09-0.31,0.26-0.39,0.48c-0.13,0.45-0.33,0.88-0.56,1.26c-0.84,0.03-1.65,0.28-2.38,0.71c-0.22-0.37-0.19-0.84,0.14-1.21
		c1.26-1.45,1.31-2.88,0.14-4.4c-0.35-0.46-0.5-0.9-0.14-1.39c0.44-0.59,1.22-0.58,1.73,0.03c0.46,0.54,0.85,1.14,1.03,1.85
		c0.12,0.5,0.31,0.49,0.72,0.26c2.43-1.38,3.31-4.56,1.94-7.06c-1.37-2.47-4.66-3.38-7.11-1.97c-0.18,0.11-0.37,0.24-0.57,0.33
		c-0.5,0.22-1.09,0.01-1.32-0.43c-0.27-0.54-0.15-1.08,0.34-1.39c0.46-0.3,0.93-0.6,1.46-0.74c0.45-0.12,0.44-0.33,0.35-0.7
		c-0.67-2.68-3.7-4.33-6.46-3.52c-2.76,0.81-4.38,3.77-3.54,6.45c0.12,0.4,0.24,0.52,0.65,0.29c1.07-0.6,2.21-0.78,3.43-0.69
		c0.71,0.07,1.13,0.52,1.09,1.13c-0.05,0.61-0.53,0.97-1.25,0.94c-2.39-0.1-4.02,1.17-4.54,3.53c-0.17,0.75-0.65,1.13-1.27,1
		c-0.6-0.13-0.89-0.62-0.78-1.37c0.14-0.94,0.51-1.79,1.03-2.58c0.15-0.21,0.16-0.35,0.06-0.59c-1.11-2.52-0.97-4.95,0.58-7.25
		c0.27-0.39-0.02-0.56-0.23-0.75c-1.65-1.46-4.38-1.6-6.2-0.35c-1,0.69-1,0.69-0.6,1.8c0.55,1.6,0.56,3.21,0.02,4.8
		c-0.12,0.33-0.07,0.39,0.26,0.46c1.15,0.24,2.17,0.79,3.01,1.62c0.48,0.47,0.51,1.16,0.09,1.58c-0.39,0.4-1.02,0.36-1.53-0.09
		c-1.73-1.56-3.97-1.6-5.77-0.12c-0.57,0.47-1.19,0.5-1.58,0.08c-0.43-0.47-0.35-1.16,0.24-1.67c0.66-0.58,1.41-1.02,2.27-1.27
		c0.33-0.1,0.55-0.26,0.71-0.58c1.17-2.29,0.62-4.82-1.43-6.53c-1.73-1.45-4.43-1.43-6.34,0.01c-1.02,0.78-1.61,1.8-1.95,3.02
		c-0.18,0.65-0.69,0.94-1.28,0.78c-0.58-0.16-0.83-0.62-0.7-1.29c0.08-0.46,0.2-0.92,0.43-1.33c0.31-0.51,0.18-0.8-0.3-1.13
		c-1.24-0.85-2.78-0.84-3.84,0.08c-0.34,0.3-0.61,0.62-0.8,0.98c-0.21-0.2-0.42-0.41-0.65-0.63c-0.22-0.21-0.43-0.43-0.67-0.66
		v-11.91l69.32,21.68l5.92,64.92l-8.46-8.5C294.65,652.49,295.15,652.15,295.6,651.64z"/>
	<path class="st2" d="M295.27,533.22c-1.09,0.42-2.25,0.57-3.38,0.86c-1.97,0.52-2.74,1.49-2.54,3.44c0.26,2.49,0.16,4.96-0.46,7.4
		c-0.93,3.75-3.17,6.03-6.69,6.44c-1.87,0.22-3.8,0.06-5.7,0.08c-1.33,0.01-2.47,0.36-3.41,1.01c-0.42,0.3-1.26,0.98-2.19,3.06
		c-1.44,3.28-1.44,6.3-1.39,7.49c0.03,0.66,0.18,3.32,1.38,6.24c0.98,2.43,1.71,3.63,1.71,3.63c0.29,0.65,0.73,1.59,1.39,2.66
		c-1.47,0.43-2.76,0.62-3.85,0.65c-0.37-0.41-0.85-1.02-1.33-1.82c0,0-0.5-0.83-0.9-1.79c-3.73-8.99-0.71-17.28-0.71-17.28
		c0.73-2.06,1.57-4.17,3.68-5.68c1.41-1,3.11-1.6,4.99-1.68c1.67-0.07,3.36,0.03,5.04-0.01c2.4-0.06,3.59-0.98,4.33-3.27
		c0.77-2.38,0.83-4.78,0.46-7.23c-0.12-0.72-0.15-1.45,0.07-2.17c0.8-2.69,2.89-3.89,5.36-4.64c1.01-0.3,2.05-0.48,3.07-0.75
		c0.75-0.19,1.01-0.58,0.56-1.34c-0.74-1.28-1.56-2.51-2.57-3.55c-3.7-3.78-5.28-8.25-4.85-13.53c0.26-3.2,0.51-6.42,0.05-9.63
		c-0.67-4.71-2.38-8.93-5.86-12.3c-4.18-4.06-9.29-6.37-14.86-7.75c-6.8-1.68-13.57-1.92-20.18,0.86
		c-10.61,4.46-18.14,11.71-20.89,23.22c-1.57,6.58-1.42,13.06,1.39,19.37c1.82,4.09,4.03,7.94,6.49,11.66
		c1.83,2.77,3.68,5.53,5.65,8.21c1.85,2.52,2.81,5.27,3.06,8.38c0.2,2.54,0.26,5.07,0.07,7.59h-3.61c0.05-0.58,0.11-1.16,0.13-1.75
		c0.18-4.77-0.18-9.27-3.32-13.35c-3.79-4.9-7.09-10.18-10.02-15.67c-3.85-7.21-5.26-14.77-3.86-22.84
		c1.47-8.46,5.28-15.66,11.95-21.15c6.86-5.68,14.58-9.37,23.72-9.27c2.1,0,4.16,0.15,6.22,0.47c6.24,1,12.06,3.06,17.25,6.73
		c6.61,4.69,9.92,11.18,10.38,19.21c0.16,2.88-0.05,5.77-0.2,8.65c-0.18,3.63,0.52,6.92,3.21,9.64c1.41,1.41,2.62,3.04,3.59,4.82
		C299.43,529.62,298.56,531.96,295.27,533.22z"/>
	<path class="st0" d="M367.76,528.6c-0.77,1.01-1.68,1.89-2.68,2.68c-0.41,0.33-0.9,0.48-1.44,0.47c-1.09-0.03-1.88-0.54-2.35-1.51
		c-0.48-0.98-0.36-1.95,0.35-2.75c0.73-0.83,1.51-1.62,2.34-2.34c0.99-0.87,2.46-0.79,3.4,0.09
		C368.35,526.13,368.55,527.56,367.76,528.6z"/>
	<path class="st0" d="M373.84,536.56c-0.69,0.77-1.42,1.51-2.19,2.2c-1.05,0.95-2.55,0.88-3.56-0.08c-0.99-0.95-1.07-2.51-0.15-3.57
		c0.7-0.79,1.47-1.51,2.23-2.24c0.48-0.46,1.07-0.67,1.66-0.63c1.18,0,1.99,0.53,2.43,1.51C374.7,534.73,374.6,535.74,373.84,536.56
		z"/>
	<path class="st0" d="M381.13,543.21c-0.71,0.84-1.5,1.62-2.34,2.34c-1.04,0.94-2.64,0.79-3.61-0.24c-0.89-0.94-0.88-2.55,0.03-3.53
		c0.66-0.7,1.35-1.37,2.03-2.04c0.5-0.51,1.14-0.73,1.85-0.77c1.07,0.05,1.9,0.5,2.36,1.49
		C381.95,541.43,381.81,542.41,381.13,543.21z"/>
	<path class="st0" d="M390.53,546.78c0.02,0.65-0.23,1.24-0.7,1.73c-0.66,0.68-1.32,1.35-2,2c-1.09,1.05-2.62,1.07-3.66,0.07
		c-1.07-1.03-1.1-2.62-0.05-3.72c0.67-0.71,1.37-1.43,2.09-2.09c0.85-0.76,1.85-0.88,2.88-0.39
		C390.07,544.83,390.56,545.64,390.53,546.78z"/>
	<path class="st0" d="M410.7,527.49c-1.05,1.07-2.67,1.07-3.78-0.03c-3.25-3.23-6.49-6.47-9.71-9.73c-0.41-0.43-0.65-0.51-1.09-0.01
		c-0.71,0.8-1.47,1.57-2.28,2.29c-0.45,0.39-0.37,0.61,0.01,0.98c3.26,3.23,6.5,6.47,9.73,9.71c1.49,1.5,0.97,3.85-1.01,4.44
		c-1.07,0.32-1.97-0.01-2.74-0.79c-3-3.02-6.01-6.02-9.02-9.03c-1.13-1.12-1.13-1.12-2.26-0.01c-0.58,0.58-1.13,1.2-1.75,1.74
		c-0.41,0.35-0.33,0.54,0.01,0.86c3.27,3.25,6.52,6.51,9.78,9.76c1.27,1.28,1.13,3.19-0.3,4.14c-1.03,0.69-2.25,0.6-3.23-0.29
		c-1.16-1.05-2.48-1.76-4.04-1.98c-0.74-0.11-1.49-0.14-2.23,0.03c-0.44,0.1-0.67,0.01-0.88-0.49c-1.15-2.8-3.21-4.42-6.27-4.69
		c-0.37-0.03-0.5-0.13-0.54-0.52c-0.35-2.9-2.66-5.44-5.58-6.09c-0.48-0.11-0.64-0.26-0.64-0.77c0-3.44-2.82-6.55-6.22-7.02
		c-1.48-0.22-2.85,0-4.16,0.62c-0.35,0.17-0.54,0.11-0.79-0.14c-2.81-2.71-4.44-5.98-4.91-9.86c-0.08-0.65-0.13-1.3-0.13-1.96
		c-0.01-7.98,5.81-14.75,13.8-15.83c5.32-0.72,9.94,0.93,13.82,4.64c0.5,0.48,0.46,0.76-0.02,1.22c-1.62,1.57-3.19,3.19-4.79,4.78
		c-0.3,0.29-0.31,0.44-0.02,0.72c1.51,1.47,2.96,3.02,4.52,4.45c3.4,3.17,8.15,3.73,12.24,1.51c0.37-0.2,0.59-0.2,0.89,0.11
		c4.5,4.52,9,9.01,13.5,13.52C411.67,524.82,411.68,526.48,410.7,527.49z"/>
	<path class="st0" d="M414.56,520.42c-0.41,0.43-0.58,0.12-0.82-0.12c-5.42-5.42-10.84-10.83-16.24-16.26
		c-0.46-0.48-0.7-0.54-1.18-0.01c-1.04,1.15-2.15,2.22-3.76,2.59c-2.06,0.48-3.85,0.01-5.41-1.37c-0.49-0.43-1.22-0.9-1.29-1.41
		c-0.06-0.54,0.77-0.97,1.23-1.43c2.11-2.04,4.03-4.28,6.32-6.13c2.94-2.36,6.28-3.7,10.1-3.72c7.37-0.01,14.19,5.49,15.79,12.84
		C420.56,511.29,418.56,516.19,414.56,520.42z"/>
	<path class="st0" d="M444.72,517.8c-1.26-5.92-3.06-10.52-4.2-13.16c-2.13-4.92-4.38-8.6-5.77-10.71
		c-2.87-4.33-8.58-11.95-17.96-18.48c-0.08-0.05-0.16-0.11-0.2-0.14c-2.74-1.89-8.58-5.62-16.83-8.39
		c-5.28-1.77-9.48-2.46-11.97-2.85c-2.21-0.36-5.68-0.9-10.3-0.94c-3.83-0.03-7.11,0.27-9.63,0.63c-1.93,0.26-4.45,0.69-7.34,1.47
		c-0.54,0.15-2.22,0.6-4.35,1.35c-6.73,2.36-11.96,5.45-13.36,6.29c-2.71,1.64-6,3.87-9.5,6.86c-1.64,1.18-2.85,2.38-3.66,3.28
		c-0.03,0.03-0.05,0.07-0.08,0.1c0.46,0.87,0.89,1.85,1.26,2.91c0.58,1.64,0.94,3.34,1.07,5.03l0.03,0.76l-0.28,13.52
		c8.62,1.77,15.11,9.36,15.11,18.41c0,9.24-6.77,16.94-15.66,18.5l0.07,12.15l0.05,6.97l-0.03,0.02l0.01,0.01h1.98
		c2,0,4.02,0,6.06-0.01c0.91,0,1.81-0.01,2.72-0.01c1.01-0.01,2.02-0.01,3.02-0.01h2.98c0.99,0,1.98-0.01,2.98-0.01
		c0.73,0,1.47,0,2.22-0.01c5.01-0.01,10.01-0.01,15.02-0.03c-0.04,0.12-0.07,0.22-0.1,0.35c-0.03,0.12-0.06,0.24-0.09,0.36
		c-0.03,0.07-0.04,0.14-0.06,0.21c-0.05,0.25-0.09,0.5-0.14,0.74c-0.02,0.14-0.03,0.29-0.05,0.43c-0.03,0.29-0.05,0.57-0.07,0.86
		v0.46c0,0.18,0,0.36,0.01,0.54c0.01,0.22,0.03,0.43,0.05,0.65c0.03,0.24,0.06,0.47,0.1,0.7c0.03,0.16,0.06,0.33,0.1,0.47
		c0.01,0.02,0.01,0.05,0.01,0.07c0.04,0.15,0.07,0.29,0.12,0.43c0.05,0.21,0.12,0.43,0.19,0.65c0.05,0.18,0.12,0.37,0.18,0.54
		c0.06,0.12,0.1,0.24,0.15,0.36c0.12,0.25,0.21,0.48,0.33,0.7c0.05,0.12,0.11,0.22,0.16,0.33c0.02,0.03,0.04,0.07,0.05,0.11
		c0.09,0.15,0.17,0.29,0.25,0.43c0.21,0.38,0.44,0.71,0.65,1.01c0.07,0.1,0.13,0.18,0.2,0.26c0.06,0.08,0.12,0.16,0.18,0.23
		c0.05,0.07,0.11,0.14,0.16,0.2c0.11,0.13,0.21,0.25,0.3,0.35c0.03,0.03,0.06,0.06,0.09,0.09l0.1,0.1c0.03,0.03,0.07,0.07,0.1,0.11
		c0.12,0.11,0.24,0.24,0.39,0.37c0.14,0.12,0.26,0.23,0.41,0.35c0.15,0.14,0.31,0.26,0.49,0.39c0.14,0.12,0.3,0.22,0.44,0.33
		c0.12,0.06,0.23,0.15,0.35,0.22c0.18,0.12,0.36,0.22,0.54,0.32c0.12,0.06,0.24,0.13,0.36,0.19c0.18,0.08,0.35,0.18,0.52,0.25
		c0.09,0.03,0.16,0.06,0.24,0.09c0.07,0.04,0.14,0.07,0.23,0.1c0.18,0.07,0.35,0.14,0.52,0.2c0.21,0.07,0.43,0.13,0.64,0.2
		c1.39,0.37,2.6,0.45,3.42,0.45h0.15c0.39-0.02,0.87-0.05,1.41-0.13c0.14-0.02,0.37-0.05,0.65-0.12c0.07-0.01,0.14-0.03,0.2-0.03
		c0.13-0.03,0.27-0.06,0.41-0.1c0.08-0.02,0.16-0.03,0.25-0.06c0.08-0.03,0.16-0.05,0.24-0.07c0.16-0.05,0.33-0.1,0.49-0.16
		c0.05-0.02,0.08-0.03,0.13-0.06c0.16-0.05,0.33-0.11,0.47-0.18c0.16-0.06,0.32-0.13,0.46-0.2c0.49-0.24,0.94-0.49,1.32-0.73
		c0.35-0.24,0.86-0.6,1.42-1.1c0.08-0.06,0.17-0.14,0.23-0.2c0.12-0.1,0.28-0.26,0.47-0.43c0.01-0.01,0.04-0.04,0.07-0.07
		c0.05-0.04,0.11-0.11,0.18-0.19c0.11-0.11,0.23-0.25,0.36-0.41c0.1-0.12,0.21-0.25,0.32-0.4c0.1-0.12,0.19-0.24,0.27-0.37
		c0.54-0.76,0.87-1.43,1.03-1.79c0.18-0.38,0.37-0.84,0.54-1.38c0.03-0.09,0.05-0.18,0.08-0.28c0.03-0.09,0.05-0.19,0.08-0.29
		c0.05-0.18,0.1-0.37,0.14-0.59c0.05-0.22,0.08-0.45,0.11-0.68c0.03-0.12,0.04-0.24,0.05-0.38c0.02-0.12,0.04-0.26,0.04-0.39
		c0.03-0.28,0.03-0.56,0.04-0.86c0-0.26-0.01-0.56-0.03-0.88c-0.01-0.1-0.01-0.21-0.03-0.33c0-0.03,0-0.07-0.01-0.12
		c0-0.03-0.01-0.05-0.01-0.08c-0.02-0.14-0.04-0.29-0.07-0.43c-0.02-0.14-0.03-0.27-0.06-0.4c-0.03-0.18-0.07-0.35-0.1-0.52
		c-0.07-0.25-0.14-0.5-0.2-0.74h49.34c0.66-1.47,1.24-2.89,1.75-4.27c1.81-4.87,2.8-9.17,3.38-12.53
		C446.03,540.12,447.33,530.03,444.72,517.8z M424.09,510.92c-0.52,4.96-2.62,9.14-6.12,12.65c-0.18,0.18-0.36,0.37-0.54,0.55
		c-0.77,0.74-1.32,1.46-1.49,2.68c-0.51,3.75-3.77,5.92-6.32,6.05c-0.44,0.02-0.57,0.24-0.62,0.67c-0.31,3.23-3.12,6.04-6.36,6.34
		c-0.4,0.03-0.54,0.1-0.58,0.54c-0.34,3.32-2.95,5.94-6.31,6.41c-0.31,0.05-0.57,0.05-0.59,0.51c-0.05,1.37-0.52,2.63-1.39,3.68
		c-1.36,1.59-2.68,3.23-4.6,4.2c-3.81,1.92-8.56,0-9.99-4.04c-0.15-0.41-0.24-0.55-0.77-0.46c-3.95,0.7-7.74-1.95-8.42-5.93
		c-0.12-0.73-0.5-0.69-0.95-0.77c-3.12-0.48-5.1-2.3-6.11-5.24c-0.21-0.62-0.26-1.28-0.26-1.94c0-0.4-0.14-0.54-0.5-0.61
		c-3.68-0.82-6.1-4.09-5.76-7.86c0.14-1.54,0.73-2.91,1.79-4.04c0.33-0.35,0.26-0.54-0.04-0.84c-3.07-3.07-4.99-6.76-5.82-11.02
		c-0.13-0.68-0.1-1.39-0.33-2.07v-3.67c0.34-1.39,0.46-2.84,0.92-4.22c2.11-6.32,6.2-10.9,12.49-13.14c8.4-3,15.9-1.18,22.29,5.03
		c0.4,0.4,0.56,0.25,0.86-0.05c3.14-3.27,6.97-5.35,11.43-6.03c7.92-1.2,14.6,1.24,19.69,7.51
		C423.26,500.2,424.68,505.3,424.09,510.92z"/>
	<path class="st2" d="M419.7,495.83c-5.09-6.26-11.77-8.71-19.69-7.51c-4.46,0.67-8.29,2.76-11.43,6.03
		c-0.29,0.31-0.46,0.46-0.86,0.05c-6.4-6.2-13.89-8.03-22.29-5.03c-6.29,2.23-10.37,6.81-12.49,13.14
		c-0.46,1.38-0.58,2.83-0.92,4.22v3.67c0.22,0.67,0.2,1.39,0.33,2.07c0.83,4.26,2.75,7.95,5.82,11.02c0.31,0.31,0.37,0.49,0.04,0.84
		c-1.06,1.13-1.65,2.5-1.79,4.04c-0.34,3.77,2.08,7.04,5.76,7.86c0.36,0.07,0.5,0.21,0.5,0.61c0,0.65,0.05,1.31,0.26,1.94
		c1.01,2.93,2.98,4.76,6.11,5.24c0.45,0.07,0.83,0.03,0.95,0.77c0.67,3.98,4.47,6.63,8.42,5.93c0.53-0.1,0.62,0.04,0.77,0.46
		c1.43,4.04,6.18,5.96,9.99,4.04c1.92-0.97,3.24-2.62,4.6-4.2c0.88-1.05,1.34-2.31,1.39-3.68c0.02-0.46,0.29-0.46,0.59-0.51
		c3.36-0.46,5.97-3.08,6.31-6.41c0.05-0.44,0.18-0.51,0.58-0.54c3.24-0.31,6.05-3.12,6.36-6.34c0.05-0.43,0.18-0.65,0.62-0.67
		c2.55-0.13,5.81-2.3,6.32-6.05c0.17-1.22,0.72-1.94,1.49-2.68c0.18-0.18,0.37-0.37,0.54-0.55c3.5-3.51,5.6-7.69,6.12-12.65
		C424.68,505.3,423.26,500.2,419.7,495.83z M365.07,531.28c-0.41,0.33-0.9,0.48-1.44,0.47c-1.09-0.03-1.88-0.54-2.35-1.51
		c-0.48-0.98-0.36-1.95,0.35-2.75c0.73-0.83,1.51-1.62,2.34-2.34c0.99-0.87,2.46-0.79,3.4,0.09c0.98,0.9,1.18,2.33,0.39,3.37
		C366.99,529.61,366.07,530.48,365.07,531.28z M373.84,536.56c-0.69,0.77-1.42,1.51-2.19,2.2c-1.05,0.95-2.55,0.88-3.56-0.08
		c-0.99-0.95-1.07-2.51-0.15-3.57c0.7-0.79,1.47-1.51,2.23-2.24c0.48-0.46,1.07-0.67,1.66-0.63c1.18,0,1.99,0.53,2.43,1.51
		C374.7,534.73,374.6,535.74,373.84,536.56z M381.13,543.21c-0.71,0.84-1.5,1.62-2.34,2.34c-1.04,0.94-2.64,0.79-3.61-0.24
		c-0.89-0.94-0.88-2.55,0.03-3.53c0.66-0.7,1.35-1.37,2.03-2.04c0.5-0.51,1.14-0.73,1.85-0.77c1.07,0.05,1.9,0.5,2.36,1.49
		C381.95,541.43,381.81,542.41,381.13,543.21z M389.84,548.51c-0.66,0.68-1.32,1.35-2,2c-1.09,1.05-2.62,1.07-3.66,0.07
		c-1.07-1.03-1.1-2.62-0.05-3.72c0.67-0.71,1.37-1.43,2.09-2.09c0.85-0.76,1.85-0.88,2.88-0.39c0.98,0.47,1.47,1.28,1.44,2.42
		C390.56,547.43,390.3,548.02,389.84,548.51z M410.7,527.49c-1.05,1.07-2.67,1.07-3.78-0.03c-3.25-3.23-6.49-6.47-9.71-9.73
		c-0.41-0.43-0.65-0.51-1.09-0.01c-0.71,0.8-1.47,1.57-2.28,2.29c-0.45,0.39-0.37,0.61,0.01,0.98c3.26,3.23,6.5,6.47,9.73,9.71
		c1.49,1.5,0.97,3.85-1.01,4.44c-1.07,0.32-1.97-0.01-2.74-0.79c-3-3.02-6.01-6.02-9.02-9.03c-1.13-1.12-1.13-1.12-2.26-0.01
		c-0.58,0.58-1.13,1.2-1.75,1.74c-0.41,0.35-0.33,0.54,0.01,0.86c3.27,3.25,6.52,6.51,9.78,9.76c1.27,1.28,1.13,3.19-0.3,4.14
		c-1.03,0.69-2.25,0.6-3.23-0.29c-1.16-1.05-2.48-1.76-4.04-1.98c-0.74-0.11-1.49-0.14-2.23,0.03c-0.44,0.1-0.67,0.01-0.88-0.49
		c-1.15-2.8-3.21-4.42-6.27-4.69c-0.37-0.03-0.5-0.13-0.54-0.52c-0.35-2.9-2.66-5.44-5.58-6.09c-0.48-0.11-0.64-0.26-0.64-0.77
		c0-3.44-2.82-6.55-6.22-7.02c-1.48-0.22-2.85,0-4.16,0.62c-0.35,0.17-0.54,0.11-0.79-0.14c-2.81-2.71-4.44-5.98-4.91-9.86
		c-0.08-0.65-0.13-1.3-0.13-1.96c-0.01-7.98,5.81-14.75,13.8-15.83c5.32-0.72,9.94,0.93,13.82,4.64c0.5,0.48,0.46,0.76-0.02,1.22
		c-1.62,1.57-3.19,3.19-4.79,4.78c-0.3,0.29-0.31,0.44-0.02,0.72c1.51,1.47,2.96,3.02,4.52,4.45c3.4,3.17,8.15,3.73,12.24,1.51
		c0.37-0.2,0.59-0.2,0.89,0.11c4.5,4.52,9,9.01,13.5,13.52C411.67,524.82,411.68,526.48,410.7,527.49z M414.56,520.42
		c-0.41,0.43-0.58,0.12-0.82-0.12c-5.42-5.42-10.84-10.83-16.24-16.26c-0.46-0.48-0.7-0.54-1.18-0.01
		c-1.04,1.15-2.15,2.22-3.76,2.59c-2.06,0.48-3.85,0.01-5.41-1.37c-0.49-0.43-1.22-0.9-1.29-1.41c-0.06-0.54,0.77-0.97,1.23-1.43
		c2.11-2.04,4.03-4.28,6.32-6.13c2.94-2.36,6.28-3.7,10.1-3.72c7.37-0.01,14.19,5.49,15.79,12.84
		C420.56,511.29,418.56,516.19,414.56,520.42z"/>
	<path class="st3" d="M415.1,624.05c-0.3,0.26-0.68,0.36-1.08,0.3C414.35,624.07,414.72,623.97,415.1,624.05z"/>
	<path class="st4" d="M260.89,608.26c0.44,0.43,0.43,1.03-0.03,1.52c-0.24,0.27-0.56,0.46-0.85,0.68c-2.73,2.01-6.87,1.71-9.26-0.67
		c-0.55-0.55-0.62-1.15-0.17-1.62c0.43-0.46,0.96-0.44,1.56,0.05c0.29,0.24,0.59,0.49,0.92,0.69c2.04,1.27,4.39,1.03,6.36-0.63
		C259.94,607.85,260.47,607.85,260.89,608.26z"/>
	<path class="st4" d="M267.2,616.45c0,0.24-0.03,0.48-0.07,0.72c-1.31,0.18-1.99,0.92-2.08,2.29c-0.05,0.59-0.57,0.94-1.13,0.89
		c-0.54-0.06-0.92-0.52-0.93-1.1c0-0.26,0.03-0.51,0.08-0.76c1.27-0.16,1.96-0.87,2.09-2.22c0.05-0.56,0.55-0.9,1.08-0.87
		C266.81,615.43,267.19,615.85,267.2,616.45z"/>
	<path class="st4" d="M275.34,630.16c0.48,0.59,0.5,1.13,0.04,1.56c-0.47,0.44-1.07,0.37-1.62-0.17c-2.38-2.38-2.68-6.52-0.67-9.26
		c0.22-0.29,0.41-0.61,0.68-0.86c0.5-0.45,1.09-0.46,1.52-0.03c0.42,0.43,0.41,0.96-0.03,1.47c-1.66,1.97-1.9,4.33-0.62,6.37
		C274.85,629.56,275.1,629.86,275.34,630.16z"/>
	<path class="st4" d="M317.88,675.09c-5.14-4.64-10.45-9.23-15.3-13.93l-8.46-8.5c0.53-0.18,1.03-0.52,1.47-1.02
		c0.92-1.05,0.92-2.58,0.08-3.83c-0.33-0.49-0.63-0.6-1.14-0.3c-0.4,0.24-0.87,0.35-1.33,0.44c-0.67,0.12-1.13-0.13-1.29-0.71
		c-0.16-0.6,0.13-1.11,0.79-1.28c1.21-0.33,2.24-0.93,3.01-1.95c1.45-1.91,1.45-4.61,0.01-6.34c-1.72-2.05-4.25-2.59-6.53-1.43
		c-0.32,0.16-0.5,0.38-0.59,0.72c-0.25,0.84-0.69,1.6-1.26,2.27c-0.52,0.58-1.2,0.67-1.67,0.23c-0.42-0.39-0.39-1,0.08-1.57
		c1.48-1.79,1.43-4.05-0.12-5.78c-0.45-0.5-0.49-1.12-0.09-1.52c0.41-0.41,1.11-0.39,1.58,0.09c0.83,0.84,1.37,1.85,1.62,3.02
		c0.07,0.32,0.14,0.38,0.46,0.26c1.6-0.54,3.2-0.53,4.8,0.02c1.11,0.39,1.11,0.39,1.8-0.6c1.26-1.81,1.11-4.56-0.35-6.2
		c-0.18-0.21-0.35-0.51-0.74-0.24c-2.3,1.56-4.73,1.7-7.25,0.58c-0.24-0.1-0.38-0.09-0.59,0.05c-0.79,0.52-1.64,0.9-2.58,1.05
		c-0.75,0.1-1.24-0.18-1.37-0.79c-0.12-0.61,0.26-1.09,1-1.26c2.36-0.52,3.63-2.16,3.53-4.54c-0.03-0.72,0.35-1.21,0.95-1.26
		c0.61-0.05,1.07,0.37,1.13,1.09c0.1,1.2-0.09,2.36-0.68,3.42c-0.23,0.41-0.11,0.53,0.28,0.65c2.68,0.85,5.64-0.77,6.45-3.53
		c0.82-2.76-0.84-5.79-3.52-6.47c-0.37-0.09-0.58-0.1-0.69,0.35c-0.14,0.53-0.45,1-0.75,1.46c-0.31,0.49-0.85,0.62-1.38,0.33
		c-0.46-0.23-0.66-0.81-0.43-1.3c0.08-0.2,0.22-0.39,0.33-0.58c1.41-2.44,0.5-5.74-1.96-7.1c-2.5-1.39-5.69-0.5-7.07,1.94
		c-0.22,0.39-0.23,0.6,0.26,0.72c0.7,0.17,1.3,0.56,1.85,1.02c0.61,0.52,0.62,1.29,0.03,1.73c-0.49,0.37-0.93,0.2-1.38-0.14
		c-1.53-1.18-2.95-1.13-4.41,0.13c-0.46,0.4-1.07,0.38-1.47-0.05c-0.39-0.42-0.39-0.99,0.02-1.43c0.6-0.66,1.36-1.08,2.21-1.34
		c0.22-0.06,0.39-0.12,0.48-0.38c0.68-2.02,2-3.46,3.94-4.33c0.34-0.16,0.39-0.33,0.29-0.65c-0.69-2.16-2.09-3.57-4.27-4.06
		c-0.71-0.82-1.66-1.43-2.85-1.81c-0.32-0.1-0.5-0.05-0.65,0.29c-0.88,1.94-2.32,3.26-4.33,3.93c-0.26,0.09-0.31,0.26-0.39,0.48
		c-0.13,0.45-0.33,0.88-0.56,1.26c-0.84,0.03-1.65,0.28-2.38,0.71c-0.22-0.37-0.19-0.84,0.14-1.21c1.26-1.45,1.31-2.88,0.14-4.4
		c-0.35-0.46-0.5-0.9-0.14-1.39c0.44-0.59,1.22-0.58,1.73,0.03c0.46,0.54,0.85,1.14,1.03,1.85c0.12,0.5,0.31,0.49,0.72,0.26
		c2.43-1.38,3.31-4.56,1.94-7.06c-1.37-2.47-4.66-3.38-7.11-1.97c-0.18,0.11-0.37,0.24-0.57,0.33c-0.5,0.22-1.09,0.01-1.32-0.43
		c-0.27-0.54-0.15-1.08,0.34-1.39c0.46-0.3,0.93-0.6,1.46-0.74c0.45-0.12,0.44-0.33,0.35-0.7c-0.67-2.68-3.7-4.33-6.46-3.52
		c-2.76,0.81-4.38,3.77-3.54,6.45c0.12,0.4,0.24,0.52,0.65,0.29c1.07-0.6,2.21-0.78,3.43-0.69c0.71,0.07,1.13,0.52,1.09,1.13
		c-0.05,0.61-0.53,0.97-1.25,0.94c-2.39-0.1-4.02,1.17-4.54,3.53c-0.17,0.75-0.65,1.13-1.27,1c-0.6-0.13-0.89-0.62-0.78-1.37
		c0.14-0.94,0.51-1.79,1.03-2.58c0.15-0.21,0.16-0.35,0.06-0.59c-1.11-2.52-0.97-4.95,0.58-7.25c0.27-0.39-0.02-0.56-0.23-0.75
		c-1.65-1.46-4.38-1.6-6.2-0.35c-1,0.69-1,0.69-0.6,1.8c0.55,1.6,0.56,3.21,0.02,4.8c-0.12,0.33-0.07,0.39,0.26,0.46
		c1.15,0.24,2.17,0.79,3.01,1.62c0.48,0.47,0.51,1.16,0.09,1.58c-0.39,0.4-1.02,0.36-1.53-0.09c-1.73-1.56-3.97-1.6-5.77-0.12
		c-0.57,0.47-1.19,0.5-1.58,0.08c-0.43-0.47-0.35-1.16,0.24-1.67c0.66-0.58,1.41-1.02,2.27-1.27c0.33-0.1,0.55-0.26,0.71-0.58
		c1.17-2.29,0.62-4.82-1.43-6.53c-1.73-1.45-4.43-1.43-6.34,0.01c-1.02,0.78-1.61,1.8-1.95,3.02c-0.18,0.65-0.69,0.94-1.28,0.78
		c-0.58-0.16-0.83-0.62-0.7-1.29c0.08-0.46,0.2-0.92,0.43-1.33c0.31-0.51,0.18-0.8-0.3-1.13c-1.24-0.85-2.78-0.84-3.84,0.08
		c-0.34,0.3-0.61,0.62-0.8,0.98c-0.21-0.2-0.42-0.41-0.65-0.63c-0.22-0.21-0.43-0.43-0.67-0.66c-3.99-3.97-9.33-9.78-14.24-17.91
		c-0.31-0.5-0.6-1-0.88-1.48h39.15c0.03,0.15,0.07,0.29,0.1,0.46l0.08,0.37c0,0.03,0.01,0.07,0.02,0.1l0.1,0.37
		c0.05,0.18,0.1,0.37,0.16,0.56l0.04,0.1c0.05,0.18,0.12,0.37,0.18,0.58l0.01,0.03c0.01,0.05,0.04,0.1,0.05,0.14
		c0.05,0.16,0.11,0.3,0.17,0.44c0.01,0.03,0.02,0.05,0.03,0.09l0.07,0.15l0.12,0.29c0.14,0.3,0.28,0.58,0.43,0.9
		c0.05,0.12,0.25,0.51,0.33,0.69c0.02,0.03,0.03,0.05,0.03,0.06c0.01,0.01,0.01,0.03,0.02,0.04l0.2,0.29l0.05,0.2l0.02,0.04
		c0.79,1.35,1.76,2.61,2.89,3.73c0.97,0.98,2.06,1.84,3.28,2.62l0.44,0.28c0.2,0.12,0.39,0.23,0.63,0.35
		c0.13,0.07,0.25,0.14,0.37,0.2l0.15,0.07c0.21,0.11,0.84,0.41,1.7,0.74c0.2,0.09,0.41,0.16,0.62,0.24
		c0.18,0.07,0.36,0.12,0.54,0.18c0,0,0.16,0.05,0.2,0.06c1.79,0.55,3.65,0.82,5.54,0.82c0.2,0,0.41,0,0.61-0.01
		c0.07,0,0.14,0,0.2-0.01c0.25-0.01,0.5-0.03,0.77-0.05c0.39-0.03,0.75-0.08,1.13-0.14l0.16-0.02l0.05-0.01
		c0.19-0.03,0.39-0.06,0.58-0.1c0.01,0,0.01,0,0.01,0c0.13-0.02,0.25-0.05,0.37-0.07c0.36-0.07,0.73-0.16,1.09-0.26v-0.01
		c0.07-0.01,0.13-0.03,0.19-0.04c0.14-0.03,0.27-0.07,0.39-0.12c0.2-0.05,0.38-0.12,0.54-0.17l0.17-0.05l0.43-0.15
		c0.7-0.26,1.39-0.57,2.04-0.91c0.22-0.12,0.44-0.24,0.65-0.36c0.09-0.05,0.18-0.1,0.26-0.15c0.22-0.13,0.44-0.26,0.65-0.4
		c0.24-0.16,0.49-0.33,0.73-0.5c0.24-0.18,0.47-0.35,0.7-0.54c0.21-0.16,0.41-0.33,0.6-0.51c0.29-0.24,0.55-0.49,0.82-0.75
		c0.17-0.16,0.33-0.33,0.49-0.5c0.65-0.67,1.24-1.41,1.81-2.19c1.5-2.13,2.57-4.62,3.1-7.15h0.06c4.67,0.03,9.39,0.09,14.04,0.16
		h0.25c4.62,0.03,9.34,0.05,14.17,0.1l0.01,0.05l0.22,30.68c-3.89,0.67-7.48,2.65-10.13,5.66c-3.31,3.75-4.84,8.77-4.22,13.76
		c0.97,7.72,6.95,13.83,14.62,15L317.88,675.09z"/>
	<path class="st5" d="M324.68,675.49c6.93-6.23,13.59-12.23,19.93-17.96l0,0l0.01-0.01c14.14-12.77,26.74-24.21,37.39-33.91
		c0-0.02-0.01-0.04-0.01-0.07l29.67-26.97c2.63-2.39,4.66-4.23,6.05-5.47c3-2.68,11.28-9.88,18.24-21.79
		c0.2-0.33,0.4-0.67,0.58-0.99h-38.58c-0.05,0.2-0.08,0.42-0.13,0.62l-0.14,0.55c-0.12,0.48-0.27,0.92-0.41,1.33l-0.07,0.22
		c-0.06,0.18-0.13,0.35-0.19,0.52c-0.06,0.16-0.13,0.32-0.19,0.47c-0.1,0.24-0.19,0.46-0.3,0.66c-0.47,1-1,1.9-1.61,2.77
		c-0.46,0.67-0.96,1.3-1.45,1.84c-0.15,0.17-0.28,0.3-0.37,0.4c-0.06,0.06-0.12,0.13-0.19,0.18c0.03-0.03,0.06-0.06,0.08-0.09
		l-0.01-0.02l-0.77,0.78c-0.12,0.11-0.23,0.21-0.36,0.31c-0.34,0.3-0.68,0.58-1.03,0.85c-0.28,0.21-0.57,0.42-0.82,0.59l-0.16,0.11
		l-0.22,0.15c-0.65,0.41-1.34,0.79-2.05,1.14c-0.25,0.11-0.5,0.23-0.76,0.33c-0.22,0.1-0.43,0.18-0.66,0.27
		c-0.16,0.06-0.31,0.12-0.48,0.18c-0.21,0.07-0.43,0.15-0.66,0.21c-0.22,0.06-0.48,0.15-0.73,0.21c-0.18,0.04-0.34,0.08-0.5,0.11
		l-0.6,0.14c-0.06,0.01-0.1,0.02-0.15,0.03c0.05-0.01,0.09-0.02,0.14-0.04l-0.72,0.14c-0.07,0.02-0.15,0.03-0.22,0.04
		c-0.19,0.03-0.41,0.06-0.6,0.07c-0.18,0.03-0.37,0.04-0.54,0.06c-0.15,0.01-0.28,0.03-0.41,0.03c-0.15,0.02-0.27,0.02-0.38,0.03
		c0.06,0,0.13-0.01,0.2-0.02l-0.54,0.02c-0.18,0.02-0.35,0.02-0.5,0.02c-2.16,0-4.31-0.38-6.37-1.13c-0.45-0.16-0.88-0.32-1.29-0.51
		l-0.06-0.03c-0.22-0.1-0.45-0.2-0.66-0.31c-0.28-0.14-0.55-0.28-0.82-0.43c-0.27-0.15-0.48-0.28-0.7-0.41l-0.18-0.11
		c-0.19-0.12-0.34-0.22-0.5-0.33c-0.22-0.14-0.43-0.3-0.65-0.46c-0.3-0.21-0.56-0.42-0.83-0.65c-0.42-0.35-0.84-0.74-1.25-1.15
		c-0.2-0.19-0.42-0.42-0.63-0.66l-0.24-0.28c-2.21-2.52-3.66-5.5-4.29-8.73c-3.63,0.01-7.36,0.02-11.12,0.03l-4.91,0.02H342
		c-5.78,0.01-11.52-0.03-17.2-0.12c-0.02,12.61-0.03,25.23-0.04,37.83c-0.4-0.07-0.79-0.15-1.19-0.18
		c-7.85-0.87-14.45,4.88-13.46,11.71c0.67,4.65,5,8.41,10.34,8.99c1.49,0.17,2.94,0.08,4.29-0.19
		C324.71,642.78,324.69,659.14,324.68,675.49L324.68,675.49z"/>
	<path class="st2" d="M342.83,612.46c7.64,0,13.83-6.19,13.83-13.83c0-2.64-0.74-5.1-2.02-7.2c0.66-0.07,1.34-0.1,2.02-0.1
		c10.72,0,19.41,8.69,19.41,19.41c0,10.72-8.69,19.41-19.41,19.41c-10.53,0-19.1-8.39-19.4-18.84
		C338.97,612.04,340.85,612.46,342.83,612.46z M372.76,614.91c1.89-7.23-2.07-15.13-7.23-17.57c-0.33-0.16-0.63-0.27-0.86-0.36
		c1.13,1.26,4.11,4.9,4.74,10.49c0.17,1.54,0.67,6.63-2.55,11.71c-3.46,5.47-8.82,7.15-10.19,7.54
		C364.38,626.69,370.99,621.69,372.76,614.91z"/>
	<circle class="st2" cx="345.46" cy="600.39" r="6.57"/>
	<path class="st6" d="M294.2,529.85c-1.02,0.27-2.06,0.45-3.07,0.75c-2.47,0.75-4.56,1.95-5.36,4.64c-0.22,0.72-0.19,1.45-0.07,2.17
		c0.37,2.45,0.32,4.86-0.46,7.23c-0.75,2.3-1.93,3.21-4.33,3.27c-1.68,0.05-3.37-0.06-5.04,0.01c-1.87,0.08-3.58,0.68-4.99,1.68
		c-2.11,1.51-2.95,3.62-3.68,5.68c0,0-3.02,8.29,0.71,17.28c0.4,0.96,0.9,1.79,0.9,1.79c0.48,0.8,0.96,1.41,1.33,1.82
		c0.02,0.03,0.04,0.05,0.06,0.07c-0.58,0-1.16-0.04-1.72-0.12c-0.44-0.06-0.88-0.15-1.3-0.26c-0.03,0-0.05-0.01-0.07-0.01
		c-0.09-0.03-0.18-0.06-0.26-0.07c-0.05-0.01-0.11-0.04-0.16-0.05c-0.07-0.02-0.13-0.05-0.18-0.05c-0.12-0.04-0.22-0.08-0.33-0.12
		c-0.07-0.02-0.14-0.05-0.2-0.07c-0.02-0.01-0.03-0.01-0.05-0.02c-0.01-0.01-0.02-0.01-0.03-0.01c-0.01,0-0.01-0.01-0.01-0.01
		c-0.58-0.22-0.99-0.42-1.18-0.52c-0.07-0.03-0.14-0.06-0.22-0.12c-0.14-0.06-0.29-0.16-0.46-0.26c-0.1-0.05-0.2-0.12-0.31-0.19
		c-0.97-0.61-1.66-1.25-2.05-1.64c-0.63-0.64-1.2-1.35-1.67-2.12c-0.05-0.08-0.1-0.16-0.14-0.23c0-0.01-0.01-0.01-0.01-0.03
		c-0.14-0.27-0.29-0.6-0.37-0.76c-0.03-0.07-0.06-0.12-0.09-0.19c-0.01-0.01-0.01-0.01-0.01-0.03c-0.03-0.05-0.05-0.1-0.07-0.13
		c0-0.03-0.02-0.05-0.03-0.07c-0.01-0.03-0.03-0.07-0.05-0.1c-0.01-0.03-0.03-0.05-0.04-0.08c-0.01-0.03-0.03-0.06-0.04-0.09
		c-0.01-0.02-0.01-0.03-0.02-0.04c-0.01-0.01-0.02-0.02-0.02-0.03v-0.01c-0.02-0.05-0.03-0.08-0.05-0.13
		c-0.01-0.04-0.03-0.09-0.05-0.12c-0.02-0.05-0.05-0.1-0.06-0.16c-0.01-0.03-0.02-0.07-0.04-0.1c0-0.02-0.01-0.03-0.02-0.05
		c-0.03-0.1-0.07-0.2-0.1-0.29c-0.06-0.16-0.09-0.32-0.14-0.46c0-0.01-0.01-0.01-0.01-0.02c-0.01-0.06-0.03-0.13-0.03-0.19
		c-0.03-0.1-0.05-0.18-0.07-0.29c-0.05-0.22-0.09-0.43-0.13-0.62c0-0.06-0.02-0.12-0.03-0.17c0-0.05-0.01-0.08-0.02-0.11
		c-0.01-0.17-0.04-0.31-0.05-0.43v-0.04c-0.02-0.1-0.02-0.2-0.03-0.3c-0.01-0.03-0.01-0.07-0.01-0.09
		c-0.01-0.07-0.01-0.16-0.01-0.26c-0.01-0.14-0.01-0.32-0.01-0.52c0-0.08,0-0.18,0.01-0.26c-0.01-0.1,0-0.2,0.01-0.31v-0.14
		c0.01-0.18,0.03-0.39,0.06-0.62c0.01-0.15,0.03-0.29,0.06-0.43c0.01-0.11,0.03-0.23,0.05-0.36c0-0.02,0-0.03,0.01-0.06
		c0.03-0.14,0.05-0.29,0.09-0.42c0.03-0.13,0.07-0.26,0.1-0.39c0.03-0.14,0.08-0.29,0.12-0.43h-16.46c0.19-2.52,0.14-5.05-0.07-7.59
		c-0.26-3.11-1.22-5.86-3.06-8.38c-1.97-2.68-3.82-5.44-5.65-8.21c-2.47-3.72-4.67-7.57-6.49-11.66
		c-2.81-6.32-2.95-12.79-1.39-19.37c2.74-11.51,10.28-18.76,20.89-23.22c6.62-2.78,13.38-2.53,20.18-0.86
		c5.56,1.38,10.68,3.7,14.86,7.75c3.47,3.37,5.19,7.58,5.86,12.3c0.46,3.21,0.21,6.43-0.05,9.63c-0.43,5.29,1.15,9.75,4.85,13.53
		c1.01,1.04,1.83,2.27,2.57,3.55C295.21,529.28,294.95,529.66,294.2,529.85z"/>
	<g>
		<path class="st2" d="M266.35,486.58c-0.08,0.11-0.07,0.28-0.01,0.57c0.07,0.29,0.26,0.67,0.61,1.24c0.34,0.51,0.75,1.07,1.21,1.69
			c0.02,0.01,0.01,0.04,0.04,0.05c0.46,0.62,0.96,1.23,1.47,1.87c0.57,0.64,1.11,1.27,1.68,1.92c0.25,0.26,0.48,0.46,0.71,0.71
			c-0.81-1.74-1.71-3.52-2.49-5.33c-0.32-0.67-0.61-1.36-0.86-2.05c-0.07-0.03-0.11-0.08-0.17-0.14c-0.32-0.18-0.64-0.36-0.97-0.46
			c-0.3-0.11-0.56-0.17-0.78-0.19C266.59,486.46,266.42,486.5,266.35,486.58z"/>
		<path class="st2" d="M272.73,497.95c0.03,0.73,0.06,1.4,0.1,1.99c0.07,0.61,0.17,1.04,0.33,1.38c0.02,0.05,0.07,0.06,0.09,0.11
			c0.13,0.26,0.3,0.54,0.56,0.77c0.32,0.26,0.64,0.49,1.02,0.68c0.35,0.17,0.74,0.3,1.12,0.38c0.4,0.07,0.65,0.08,0.78,0.04
			c-0.33-0.56-0.61-1.24-0.83-2.05c-0.18-0.8-0.34-1.6-0.42-2.42c-0.05-0.81-0.06-1.6-0.06-2.42c0.04-0.8,0.1-1.59,0.18-2.35
			c0.07-0.79,0.13-1.52,0.19-2.22c0.07-0.7,0.1-1.34,0.08-1.94c0-0.27-0.04-0.59-0.1-0.9L272.73,497.95z"/>
	</g>
	<path class="st6" d="M327.78,511.95c-1.15,0-2.25,0.17-3.29,0.46l0.41-20.2l0.01-0.56c-0.07-0.82-0.24-1.98-0.7-3.33
		c-0.84-2.39-2.16-4.02-3.26-5.24c-0.1-0.12-0.2-0.23-0.29-0.34c-0.82-0.9-2.04-2.11-3.71-3.29c-3.55-2.98-6.87-5.22-9.62-6.85
		c-1.41-0.84-6.7-3.94-13.51-6.28c-2.16-0.75-3.86-1.21-4.4-1.36c-2.94-0.77-5.49-1.21-7.44-1.47c-2.55-0.36-5.87-0.67-9.75-0.63
		c-4.67,0.05-8.19,0.58-10.44,0.94c-2.51,0.39-6.76,1.08-12.09,2.85c-8.36,2.78-14.27,6.5-17.04,8.4c-0.04,0.03-0.12,0.08-0.21,0.14
		c-9.49,6.54-15.28,14.14-18.17,18.47c-1.41,2.12-3.7,5.79-5.85,10.71c-1.15,2.65-2.97,7.24-4.25,13.16
		c-2.65,12.23-1.33,22.32-0.56,26.73c0.58,3.36,1.6,7.68,3.42,12.55c0.52,1.37,1.1,2.79,1.76,4.23h29.86
		c0.05-0.58,0.11-1.16,0.13-1.75c0.18-4.77-0.18-9.27-3.32-13.35c-3.79-4.9-7.09-10.18-10.02-15.67
		c-3.85-7.21-5.26-14.77-3.86-22.84c1.47-8.46,5.28-15.66,11.95-21.15c6.86-5.68,14.58-9.37,23.72-9.27c2.1,0,4.16,0.15,6.22,0.47
		c6.24,1,12.06,3.06,17.25,6.73c6.61,4.69,9.92,11.18,10.38,19.21c0.16,2.88-0.05,5.77-0.2,8.65c-0.18,3.63,0.52,6.92,3.21,9.64
		c1.41,1.41,2.62,3.04,3.59,4.82c1.71,3.1,0.84,5.43-2.45,6.69c-1.09,0.42-2.25,0.57-3.38,0.86c-1.97,0.52-2.74,1.49-2.54,3.44
		c0.26,2.49,0.16,4.96-0.46,7.4c-0.93,3.75-3.17,6.03-6.69,6.44c-1.87,0.22-3.8,0.06-5.7,0.08c-1.33,0.01-2.47,0.36-3.41,1.01
		c-0.42,0.3-1.26,0.98-2.19,3.06c-1.44,3.28-1.44,6.3-1.39,7.49c0.03,0.66,0.18,3.32,1.38,6.24c0.98,2.43,1.71,3.63,1.71,3.63
		c0.29,0.65,0.73,1.59,1.39,2.66c0.01,0.03,0.03,0.06,0.05,0.1c0.05-0.02,0.09-0.03,0.14-0.05c0.08-0.03,0.17-0.06,0.26-0.09
		c0.33-0.13,0.7-0.28,1.09-0.48c0.01,0,0.01,0,0.03-0.01c0.05-0.03,0.12-0.05,0.17-0.09c0.12-0.06,0.23-0.12,0.35-0.19
		c0.01-0.01,0.03-0.01,0.03-0.02c0.01,0,0.02-0.01,0.03-0.01c0.07-0.04,0.15-0.09,0.22-0.13c0.01-0.01,0.02-0.01,0.03-0.01
		c0.06-0.04,0.12-0.07,0.18-0.11c0.01-0.01,0.03-0.02,0.03-0.03c0.05-0.05,0.12-0.07,0.18-0.12c0.01,0,0.01,0,0.02-0.01
		c0,0,0.01,0,0.01-0.01c0.01,0,0.01,0,0.01,0c0-0.01,0.01-0.01,0.01-0.01c0.01,0,0.01,0,0.02-0.02c0.03-0.02,0.07-0.04,0.1-0.07
		c0.01-0.01,0.03-0.01,0.04-0.03v-0.01c0.15-0.08,0.3-0.18,0.43-0.31c0.09-0.05,0.16-0.11,0.23-0.16c0.02-0.02,0.03-0.02,0.04-0.04
		c0.06-0.05,0.13-0.09,0.18-0.15c0.26-0.21,0.52-0.44,0.77-0.69c0.02,0,0.03-0.01,0.05-0.03c0.11-0.11,0.22-0.22,0.31-0.34
		c0.02,0,0.03-0.02,0.03-0.03c0.08-0.07,0.16-0.16,0.23-0.24c0-0.01,0.01-0.01,0.01-0.01c0.07-0.07,0.12-0.15,0.18-0.22
		c0.11-0.12,0.2-0.24,0.3-0.36c0.05-0.06,0.1-0.14,0.16-0.2c0.22-0.3,0.42-0.62,0.62-0.95c0.07-0.12,0.15-0.24,0.21-0.37
		c0.18-0.33,0.35-0.67,0.49-1.01c0.03-0.07,0.05-0.15,0.08-0.21c0.16-0.39,0.3-0.78,0.41-1.18c0.02-0.09,0.05-0.17,0.07-0.26
		c0.03-0.08,0.05-0.16,0.06-0.26c0.04-0.14,0.07-0.26,0.1-0.39c0.01-0.03,0.01-0.05,0.01-0.07c0.04-0.17,0.07-0.35,0.08-0.53
		c0.01-0.01,0.01-0.01,0-0.02c0.02-0.05,0.03-0.11,0.03-0.17c0.01-0.01,0.01-0.01,0.01-0.01v-0.07c0.01-0.03,0.01-0.05,0.01-0.08
		c0.02-0.15,0.04-0.29,0.05-0.43c0-0.05,0.01-0.12,0-0.18c0.03-0.23,0.03-0.45,0.03-0.68c0-0.3-0.01-0.58-0.03-0.87
		c-0.02-0.15-0.03-0.29-0.05-0.43c0-0.06-0.01-0.14-0.03-0.21c-0.01-0.06-0.02-0.14-0.04-0.2c0-0.03,0-0.06-0.01-0.1L282,562.6
		c0-0.01-0.01-0.01-0.01-0.03v-0.03c0-0.04-0.01-0.07-0.02-0.11c-0.03-0.17-0.05-0.32-0.08-0.46c0-0.02-0.01-0.02-0.01-0.04
		c-0.01-0.06-0.03-0.14-0.05-0.21c-0.01-0.03-0.02-0.04-0.02-0.07v-0.01c0-0.01,0-0.01,0-0.01c-0.01-0.06-0.03-0.1-0.03-0.15
		c-0.02-0.05-0.03-0.08-0.03-0.13c-0.01-0.02-0.01-0.05-0.01-0.07c-0.03-0.08-0.05-0.16-0.07-0.24h0.94c2.07,0,4.14,0.02,6.25,0.03
		c4.65,0.03,9.35,0.09,14.07,0.15h0.01c1.2,0.01,2.38,0.02,3.57,0.02c1.18,0.01,2.36,0.02,3.56,0.03c1.37,0.01,2.76,0.02,4.14,0.03
		c1.01,0.01,2.01,0.03,3.02,0.03h0.13c2.28,0.03,4.56,0.05,6.87,0.08l-0.05-6.96v-0.03l-0.12-19.48c1.18,0.39,2.43,0.59,3.74,0.59
		c6.61,0,11.96-5.27,11.96-11.79C339.74,517.24,334.39,511.95,327.78,511.95z M321.25,513.18c-0.07,3.07-2.66,5.58-5.74,5.61
		c-1.39,0.02-2.79,0.03-4.19,0c-0.52-0.01-0.92,0.17-1.31,0.5c-0.88,0.76-1.79,1.51-2.7,2.26c-0.48,0.39-1.01,0.52-1.58,0.24
		c-0.56-0.26-0.82-0.75-0.87-1.37c-0.03-0.36-0.1-0.73-0.07-1.09c0.02-0.52-0.26-0.54-0.67-0.56c-1.09-0.01-4.11,0.1-5.34-0.06
		c-0.59-0.07-1.45-0.28-2.46-0.85c-0.03-0.01-0.04-0.03-0.06-0.04c-0.15-0.11-0.86-0.59-1.49-1.64c-0.58-0.94-0.77-1.8-0.87-2.28
		c-0.14-0.62-0.27-1.58-0.16-2.75c0.06-2.5,0.12-5,0.18-7.51c0.13-2.59,1.57-4.29,3.95-5.21c0.32-0.12,0.66-0.11,0.95-0.26
		c0.07-0.03,0.14-0.05,0.22-0.05h7.58c0.13,0,0.25,0.05,0.34,0.14c0.33,0.31,0.54,0.66,0.31,1.16c-0.2,0.42-0.56,0.54-1,0.52
		c-2.09-0.01-4.17,0.05-6.25-0.01c-2.17-0.06-4.31,1.49-4.31,4.04c-0.01,3.1-0.03,6.2,0.05,9.3c0.05,2.07,1.83,3.67,3.91,3.69
		c1.64,0.02,3.28,0.01,4.92,0.01c1.22,0,1.87,0.6,1.98,1.8c0.03,0.28,0.26,0.45,0.5,0.45c0.12,0,0.22-0.03,0.32-0.11
		c0.5-0.41,0.99-0.8,1.45-1.22c0.72-0.67,1.54-0.98,2.53-0.94c1.31,0.05,2.63,0.02,3.94,0.02c2.36-0.01,4.14-1.79,4.14-4.16v-8.68
		c0-2.41-1.76-4.17-4.17-4.18c-1.39,0-2.8-0.01-4.19,0c-0.53,0.01-1.03,0.01-1.3-0.54c-0.21-0.46,0.02-0.78,0.28-1.1
		c0.09-0.12,0.24-0.18,0.39-0.18h5.88c0.05,0,0.12,0.02,0.17,0.04c0.2,0.07,0.39,0.16,0.59,0.21c2.31,0.64,4.15,2.91,4.18,5.32
		C321.31,506.86,321.31,510.02,321.25,513.18z"/>
	<path class="st2" d="M321.25,513.18c-0.07,3.07-2.66,5.58-5.74,5.61c-1.39,0.02-2.79,0.03-4.19,0c-0.52-0.01-0.92,0.17-1.31,0.5
		c-0.88,0.76-1.79,1.51-2.7,2.26c-0.48,0.39-1.01,0.52-1.58,0.24c-0.56-0.26-0.82-0.75-0.87-1.37c-0.03-0.36-0.1-0.73-0.07-1.09
		c0.02-0.52-0.26-0.54-0.67-0.56c-1.09-0.01-4.11,0.1-5.34-0.06c-0.59-0.07-1.45-0.28-2.46-0.85c-0.03-0.01-0.04-0.03-0.06-0.04
		c-0.15-0.11-0.86-0.59-1.49-1.64c-0.58-0.94-0.77-1.8-0.87-2.28c-0.14-0.62-0.27-1.58-0.16-2.75c0.06-2.5,0.12-5,0.18-7.51
		c0.13-2.59,1.57-4.29,3.95-5.21c0.32-0.12,0.66-0.11,0.95-0.26c0.07-0.03,0.14-0.05,0.22-0.05h7.58c0.13,0,0.25,0.05,0.34,0.14
		c0.33,0.31,0.54,0.66,0.31,1.16c-0.2,0.42-0.56,0.54-1,0.52c-2.09-0.01-4.17,0.05-6.25-0.01c-2.17-0.06-4.31,1.49-4.31,4.04
		c-0.01,3.1-0.03,6.2,0.05,9.3c0.05,2.07,1.83,3.67,3.91,3.69c1.64,0.02,3.28,0.01,4.92,0.01c1.22,0,1.87,0.6,1.98,1.8
		c0.03,0.28,0.26,0.45,0.5,0.45c0.12,0,0.22-0.03,0.32-0.11c0.5-0.41,0.99-0.8,1.45-1.22c0.72-0.67,1.54-0.98,2.53-0.94
		c1.31,0.05,2.63,0.02,3.94,0.02c2.36-0.01,4.14-1.79,4.14-4.16v-8.68c0-2.41-1.76-4.17-4.17-4.18c-1.39,0-2.8-0.01-4.19,0
		c-0.53,0.01-1.03,0.01-1.3-0.54c-0.21-0.46,0.02-0.78,0.28-1.1c0.09-0.12,0.24-0.18,0.39-0.18h5.88c0.05,0,0.12,0.02,0.17,0.04
		c0.2,0.07,0.39,0.16,0.59,0.21c2.31,0.64,4.15,2.91,4.18,5.32C321.31,506.86,321.31,510.02,321.25,513.18z"/>
	<path class="st2" d="M313.68,513.63c-0.23,0.28-0.43,0.52-0.64,0.72c-0.2,0.22-0.37,0.36-0.54,0.43c-0.14,0.09-0.31,0.13-0.52,0.14
		c-0.05,0.01-0.1,0.01-0.15,0.01c-0.14,0-0.29-0.02-0.44-0.05c-0.19-0.03-0.37-0.1-0.54-0.19c-0.16-0.08-0.26-0.17-0.31-0.21
		c0.29-0.12,0.62-0.3,0.93-0.54c0.33-0.25,0.62-0.52,0.89-0.81c0.27-0.29,0.65-0.95,0.88-1.27c0.22-0.31,0.33-0.26,0.54-0.58
		c0.2-0.31,0.39-0.61,0.58-0.9c0.18-0.28,0.37-0.54,0.56-0.77c0.1-0.12,0.23-0.25,0.38-0.38c0.16-0.11,0.29-0.21,0.43-0.29
		c0.14-0.07,0.26-0.11,0.37-0.14c0.1-0.01,0.18-0.01,0.22,0.03c0.05,0.04,0.07,0.14,0.05,0.27c-0.01,0.14-0.08,0.35-0.21,0.63
		L313.68,513.63z"/>
	<path class="st2" d="M311.93,508.02"/>
	<g>
		<path class="st2" d="M297.77,503.59c0.01-0.34,0.1-0.61,0.28-0.82c0.18-0.21,0.39-0.36,0.64-0.45c0.25-0.09,0.51-0.14,0.79-0.14
			c0.28,0,0.54,0.03,0.77,0.1c0.32,0.08,0.66,0.18,1.02,0.3c0.35,0.12,0.71,0.26,1.07,0.4c0.36,0.14,0.71,0.28,1.07,0.42
			c0.35,0.14,0.69,0.27,1.02,0.38c0.08,0.03,0.16,0.06,0.25,0.09s0.17,0.06,0.25,0.11s0.16,0.11,0.22,0.2
			c0.06,0.08,0.1,0.19,0.1,0.32c0.01,0.19-0.01,0.34-0.05,0.45c-0.04,0.11-0.11,0.19-0.19,0.25s-0.18,0.08-0.28,0.09
			c-0.1,0-0.2,0-0.3,0c-0.35,0.01-0.74,0.06-1.17,0.16c-0.44,0.09-0.87,0.22-1.3,0.39c-0.43,0.16-0.83,0.36-1.2,0.58
			c-0.37,0.22-0.67,0.47-0.88,0.73c-0.3,0.35-0.5,0.72-0.58,1.11c-0.08,0.39-0.06,0.76,0.07,1.11s0.38,0.66,0.74,0.94
			c0.36,0.28,0.84,0.48,1.45,0.61c0.26,0.06,0.52,0.08,0.78,0.07c0.26-0.01,0.51-0.06,0.74-0.13c0.24-0.07,0.45-0.17,0.64-0.3
			s0.35-0.28,0.47-0.46c0.14-0.2,0.28-0.32,0.43-0.37c0.14-0.05,0.26-0.02,0.34,0.09c0.09,0.11,0.13,0.25,0.13,0.41
			c0,0.17-0.03,0.35-0.09,0.54c-0.06,0.19-0.17,0.38-0.3,0.58c-0.14,0.2-0.32,0.38-0.55,0.55c-0.23,0.16-0.51,0.3-0.83,0.41
			c-0.32,0.11-0.71,0.17-1.14,0.17c-0.66,0.01-1.24-0.07-1.76-0.25c-0.51-0.18-0.94-0.42-1.3-0.74c-0.35-0.31-0.62-0.68-0.81-1.1
			s-0.28-0.86-0.29-1.33c-0.01-0.46,0.07-0.93,0.24-1.41c0.17-0.48,0.43-0.93,0.79-1.36c0.36-0.43,0.81-0.82,1.35-1.17
			c0.54-0.35,1.05-0.59,1.52-0.73c-0.06-0.03-0.26-0.11-0.58-0.24s-0.62-0.24-0.9-0.32c-0.28-0.08-0.54-0.14-0.75-0.16
			c-0.22-0.02-0.37-0.02-0.45,0.02c-0.01,0.12-0.08,0.25-0.2,0.38c-0.12,0.13-0.27,0.19-0.45,0.2c-0.1,0.01-0.19,0-0.29-0.04
			c-0.09-0.04-0.18-0.08-0.25-0.14c-0.07-0.06-0.13-0.13-0.18-0.22C297.79,503.78,297.77,503.69,297.77,503.59z M301.79,507.48
			c0.12,0,0.23,0.02,0.34,0.07c0.11,0.05,0.2,0.11,0.28,0.19c0.08,0.08,0.14,0.18,0.19,0.28s0.07,0.22,0.07,0.35
			c0,0.24-0.08,0.45-0.25,0.62c-0.17,0.17-0.37,0.26-0.62,0.26c-0.24,0-0.45-0.09-0.61-0.26c-0.16-0.17-0.25-0.38-0.25-0.62
			c0-0.12,0.02-0.24,0.07-0.35s0.11-0.2,0.18-0.28c0.08-0.08,0.17-0.14,0.27-0.19C301.56,507.5,301.67,507.48,301.79,507.48z"/>
	</g>
	<g>
		<path class="st2" d="M256.82,516.14c0.51,0.45,1.14,0.81,1.88,1.07s1.59,0.38,2.55,0.36c0.64-0.01,1.19-0.09,1.66-0.25
			c0.47-0.16,0.87-0.36,1.21-0.6c0.33-0.24,0.6-0.5,0.8-0.79c0.2-0.29,0.35-0.57,0.44-0.85c0.09-0.27,0.14-0.53,0.14-0.78
			s-0.07-0.44-0.19-0.6c-0.13-0.16-0.29-0.2-0.5-0.13c-0.21,0.07-0.41,0.25-0.62,0.54c-0.18,0.26-0.41,0.48-0.69,0.66
			c-0.28,0.18-0.59,0.33-0.93,0.43s-0.7,0.16-1.08,0.18c-0.38,0.02-0.75-0.01-1.13-0.1c-0.88-0.19-1.58-0.48-2.1-0.89
			c-0.52-0.4-0.88-0.86-1.07-1.36c-0.07-0.19-0.12-0.39-0.14-0.59c-0.48,0.69-0.96,1.39-1.39,2.11
			C255.92,515.16,256.31,515.69,256.82,516.14z"/>
		<path class="st2" d="M264.72,508.71c-0.15-0.07-0.32-0.1-0.49-0.1c-0.17,0-0.34,0.03-0.49,0.1s-0.28,0.16-0.39,0.28
			c-0.11,0.12-0.2,0.25-0.26,0.41c-0.07,0.16-0.1,0.33-0.1,0.51c0,0.35,0.12,0.66,0.36,0.91s0.54,0.38,0.89,0.38
			c0.35,0,0.65-0.13,0.89-0.38c0.24-0.25,0.36-0.55,0.36-0.91c0-0.18-0.03-0.35-0.1-0.51c-0.07-0.16-0.16-0.29-0.27-0.41
			C265.01,508.87,264.87,508.78,264.72,508.71z"/>
		<path class="st2" d="M269.1,503.82c-0.09-0.12-0.2-0.22-0.32-0.29c-0.12-0.07-0.24-0.12-0.36-0.16c-0.12-0.04-0.24-0.08-0.36-0.12
			c-0.48-0.16-0.97-0.35-1.48-0.55c-0.51-0.2-1.03-0.41-1.55-0.61c-0.52-0.2-1.04-0.4-1.55-0.58c-0.51-0.18-1.01-0.33-1.48-0.44
			c-0.35-0.09-0.72-0.14-1.12-0.14c-0.4,0-0.79,0.07-1.15,0.21c-0.36,0.14-0.67,0.35-0.92,0.65c-0.25,0.3-0.39,0.69-0.41,1.19
			c0,0.14,0.04,0.27,0.11,0.4c0.07,0.13,0.16,0.23,0.26,0.32c0.11,0.09,0.23,0.15,0.36,0.21c0.14,0.05,0.28,0.07,0.42,0.05
			c0.25-0.01,0.47-0.1,0.65-0.29c0.18-0.18,0.28-0.37,0.29-0.55c0.12-0.05,0.34-0.06,0.65-0.03c0.32,0.04,0.68,0.11,1.09,0.24
			c0.41,0.12,0.85,0.28,1.31,0.47c0.46,0.19,0.74,0.31,0.84,0.35c-0.68,0.2-1.42,0.55-2.21,1.06c-0.79,0.51-1.44,1.08-1.96,1.7
			s-0.9,1.28-1.14,1.97c-0.24,0.69-0.36,1.37-0.35,2.04c0.01,0.67,0.15,1.31,0.42,1.92c0,0.01,0.01,0.01,0.01,0.02
			c0.43-0.72,0.91-1.41,1.39-2.11c-0.05-0.33-0.04-0.67,0.04-1.02c0.12-0.57,0.4-1.11,0.84-1.62c0.31-0.38,0.74-0.73,1.28-1.05
			c0.54-0.33,1.12-0.61,1.75-0.84c0.62-0.24,1.25-0.42,1.88-0.56c0.63-0.14,1.2-0.21,1.7-0.23c0.14,0,0.28,0,0.43-0.01
			c0.15,0,0.28-0.05,0.41-0.12c0.13-0.08,0.22-0.2,0.28-0.36c0.06-0.16,0.08-0.38,0.08-0.65
			C269.24,504.09,269.19,503.94,269.1,503.82z"/>
	</g>
	<g>
		<path class="st2" d="M315.6,505.46c-0.08,0.15-0.2,0.3-0.37,0.46c-0.16,0.15-0.33,0.25-0.5,0.3s-0.32,0.05-0.47,0.01
			c-0.15-0.04-0.29-0.1-0.41-0.18s-0.23-0.17-0.31-0.26s-0.12-0.13-0.1-0.09c-0.07,0.12-0.2,0.3-0.39,0.54
			c-0.19,0.24-0.41,0.45-0.66,0.63c-0.25,0.19-0.55,0.33-0.88,0.45c-0.33,0.11-0.7,0.16-1.12,0.15c-0.32,0-0.64-0.06-0.93-0.18
			c-0.3-0.11-0.58-0.28-0.83-0.5c-0.25-0.22-0.47-0.49-0.66-0.82c-0.19-0.33-0.33-0.7-0.42-1.12c-0.07-0.32-0.08-0.6-0.03-0.84
			s0.14-0.43,0.27-0.58c0.13-0.15,0.27-0.26,0.44-0.32c0.17-0.06,0.33-0.08,0.49-0.06c0.16,0.02,0.31,0.08,0.43,0.18
			c0.13,0.1,0.2,0.24,0.23,0.41c0.03,0.17-0.01,0.37-0.1,0.59s-0.25,0.44-0.47,0.67c0.05,0.22,0.13,0.43,0.24,0.62
			c0.11,0.19,0.24,0.35,0.38,0.47c0.15,0.12,0.3,0.21,0.48,0.26c0.17,0.05,0.35,0.08,0.54,0.07c0.28,0,0.54-0.05,0.76-0.12
			c0.23-0.08,0.43-0.18,0.62-0.31c0.18-0.13,0.35-0.28,0.5-0.44c0.15-0.16,0.28-0.34,0.4-0.52c0.12-0.18,0.22-0.37,0.31-0.55
			s0.18-0.38,0.27-0.58c0.2-0.03,0.37-0.03,0.51,0s0.25,0.12,0.32,0.28c0.02,0.06,0,0.13-0.05,0.2c-0.05,0.07-0.09,0.14-0.13,0.21
			c-0.04,0.07-0.06,0.13-0.08,0.19c-0.01,0.06-0.01,0.1,0.01,0.13c0.12,0.18,0.25,0.28,0.39,0.29c0.14,0.01,0.28-0.04,0.42-0.16
			c0.14-0.12,0.27-0.29,0.39-0.52c0.12-0.23,0.2-0.52,0.25-0.87c0.25-0.1,0.43-0.16,0.54-0.17c0.11-0.01,0.19,0.04,0.21,0.14
			c0.04,0.15,0.06,0.3,0.05,0.47c-0.01,0.17,0,0.32,0.02,0.46c0.02,0.14,0.07,0.25,0.14,0.34c0.07,0.09,0.21,0.15,0.41,0.18
			c0.12,0.02,0.21,0.01,0.26-0.02c0.05-0.03,0.08-0.09,0.1-0.16c0.02-0.08,0.02-0.17,0.01-0.3s-0.02-0.25-0.04-0.39
			c-0.02-0.14-0.04-0.27-0.04-0.41s0.01-0.26,0.04-0.37c0.04-0.1,0.1-0.16,0.19-0.17s0.17-0.01,0.26,0s0.17,0.03,0.26,0.06
			c0.09,0.02,0.21,0.05,0.35,0.06c0,0.22,0.01,0.42,0.03,0.61c0.02,0.19,0.03,0.38,0.05,0.58c0.01,0.2,0.01,0.4-0.01,0.6
			c-0.02,0.2-0.07,0.38-0.15,0.54s-0.21,0.3-0.37,0.4s-0.39,0.15-0.66,0.14c-0.3-0.01-0.59-0.09-0.85-0.24
			S315.67,505.59,315.6,505.46z"/>
	</g>
	<g>
		<path class="st2" d="M248.98,506.83c-0.03-0.44-0.06-0.86-0.1-1.27c-0.04-0.41-0.06-0.85-0.06-1.33
			c-0.32-0.04-0.58-0.09-0.77-0.14c-0.19-0.05-0.38-0.09-0.56-0.12c-0.18-0.03-0.37-0.03-0.56,0c-0.19,0.03-0.33,0.16-0.41,0.37
			c-0.07,0.25-0.1,0.52-0.09,0.82s0.05,0.59,0.09,0.89c0.05,0.3,0.08,0.58,0.09,0.85s0.01,0.48-0.03,0.65
			c-0.04,0.17-0.11,0.28-0.22,0.36c-0.11,0.07-0.3,0.09-0.57,0.05c-0.45-0.06-0.75-0.19-0.9-0.39c-0.16-0.2-0.26-0.45-0.3-0.75
			c-0.05-0.3-0.06-0.63-0.04-0.99c0.02-0.36-0.02-0.7-0.11-1.03c-0.06-0.23-0.22-0.33-0.47-0.31c-0.25,0.02-0.64,0.15-1.18,0.37
			c-0.1,0.76-0.28,1.39-0.54,1.89c-0.25,0.5-0.53,0.88-0.84,1.13c-0.31,0.25-0.61,0.37-0.91,0.35c-0.3-0.02-0.58-0.23-0.84-0.62
			c-0.04-0.06-0.05-0.16-0.02-0.28c0.03-0.12,0.09-0.26,0.17-0.4s0.18-0.3,0.29-0.45s0.14-0.3,0.1-0.44
			c-0.16-0.34-0.39-0.55-0.69-0.61c-0.31-0.07-0.68-0.06-1.11,0.01c-0.2,0.44-0.39,0.85-0.58,1.26c-0.19,0.4-0.41,0.81-0.67,1.2
			c-0.25,0.4-0.54,0.78-0.86,1.13c-0.04,0.05-0.09,0.1-0.14,0.14c0.2,1,0.3,2,0.23,3c0.01-0.01,0.02-0.02,0.04-0.02
			c0.55-0.4,1.04-0.86,1.45-1.38c0.41-0.51,0.69-0.9,0.85-1.17c-0.05-0.08,0.02-0.02,0.21,0.19c0.19,0.21,0.42,0.4,0.68,0.58
			c0.26,0.17,0.56,0.3,0.89,0.39c0.33,0.09,0.67,0.08,1.03-0.03s0.72-0.33,1.08-0.66c0.36-0.33,0.62-0.66,0.8-0.99
			c0.16,0.27,0.52,0.57,1.1,0.89c0.58,0.33,1.19,0.5,1.86,0.52c0.6,0.01,1.08-0.09,1.45-0.31c0.36-0.22,0.63-0.51,0.82-0.86
			c0.18-0.36,0.29-0.75,0.33-1.18C249,507.69,249.01,507.26,248.98,506.83z"/>
		<path class="st2" d="M239.62,503.81c-0.35-0.22-0.69-0.47-1-0.75c-0.36-0.33-0.68-0.72-0.95-1.17c-0.27-0.45-0.48-0.97-0.62-1.57
			c-0.1-0.39-0.13-0.79-0.09-1.18c0.04-0.39,0.15-0.77,0.34-1.14c0.19-0.36,0.47-0.71,0.83-1.03c0.36-0.32,0.77-0.58,1.22-0.79
			c0.59,0.37,1.14,0.6,1.65,0.69c0.51,0.09,0.94,0.07,1.29-0.06c0.35-0.13,0.61-0.36,0.76-0.67c0.15-0.31,0.22-0.65,0.18-1
			c-0.03-0.35-0.16-0.69-0.36-1.02s-0.5-0.59-0.89-0.79c-0.38-0.2-0.84-0.3-1.36-0.3c-0.53,0-1.12,0.15-1.77,0.45
			c-0.86,0.39-1.59,0.86-2.2,1.41c-0.61,0.55-1.09,1.14-1.44,1.78c-0.35,0.64-0.58,1.3-0.68,1.99c-0.11,0.69-0.09,1.38,0.05,2.07
			c0.17,0.89,0.45,1.65,0.84,2.31c0.38,0.64,0.82,1.18,1.32,1.63C237.72,504.53,238.68,504.23,239.62,503.81z"/>
	</g>
</g>
</svg>
